<svg version="1.1" viewBox="0.0 0.0 600.0 371.0" fill="none" stroke="none" stroke-linecap="square" stroke-miterlimit="10" width="600" height="371" xmlns:xlink="http://www.w3.org/1999/xlink" xmlns="http://www.w3.org/2000/svg"><path fill="#ffffff" d="M0 0L600.0 0L600.0 371.0L0 371.0L0 0Z" fill-rule="nonzero"/><path stroke="#333333" stroke-width="1.0" stroke-linecap="butt" d="M109.5 81.5L109.5 332.5" fill-rule="nonzero"/><path stroke="#cccccc" stroke-width="1.0" stroke-linecap="butt" d="M227.5 81.5L227.5 332.5" fill-rule="nonzero"/><path stroke="#cccccc" stroke-width="1.0" stroke-linecap="butt" d="M345.5 81.5L345.5 332.5" fill-rule="nonzero"/><path stroke="#cccccc" stroke-width="1.0" stroke-linecap="butt" d="M463.5 81.5L463.5 332.5" fill-rule="nonzero"/><path stroke="#cccccc" stroke-width="1.0" stroke-linecap="butt" d="M581.5 81.5L581.5 332.5" fill-rule="nonzero"/><clipPath id="id_0"><path d="M109.55 81.28333L581.45 81.28333L581.45 332.45L109.55 332.45L109.55 81.28333Z" clip-rule="nonzero"/></clipPath><path stroke="#000000" stroke-width="2.0" stroke-linecap="butt" stroke-opacity="0.0" clip-path="url(#id_0)" d="M110.0 139.0L110.0 101.0L390.0 101.0L390.0 139.0Z" fill-rule="nonzero"/><path fill="#4285f4" clip-path="url(#id_0)" d="M110.0 139.0L110.0 101.0L390.0 101.0L390.0 139.0Z" fill-rule="nonzero"/><path stroke="#000000" stroke-width="2.0" stroke-linecap="butt" stroke-opacity="0.0" clip-path="url(#id_0)" d="M110.0 197.0L110.0 159.0L343.0 159.0L343.0 197.0Z" fill-rule="nonzero"/><path fill="#4285f4" clip-path="url(#id_0)" d="M110.0 197.0L110.0 159.0L343.0 159.0L343.0 197.0Z" fill-rule="nonzero"/><path stroke="#000000" stroke-width="2.0" stroke-linecap="butt" stroke-opacity="0.0" clip-path="url(#id_0)" d="M110.0 255.0L110.0 217.0L357.0 217.0L357.0 255.0Z" fill-rule="nonzero"/><path fill="#4285f4" clip-path="url(#id_0)" d="M110.0 255.0L110.0 217.0L357.0 217.0L357.0 255.0Z" fill-rule="nonzero"/><path stroke="#000000" stroke-width="2.0" stroke-linecap="butt" stroke-opacity="0.0" clip-path="url(#id_0)" d="M110.0 312.0L110.0 274.0L319.0 274.0L319.0 312.0Z" fill-rule="nonzero"/><path fill="#4285f4" clip-path="url(#id_0)" d="M110.0 312.0L110.0 274.0L319.0 274.0L319.0 312.0Z" fill-rule="nonzero"/><path stroke="#000000" stroke-width="2.0" stroke-linecap="butt" stroke-opacity="0.0" clip-path="url(#id_0)" d="M390.0 139.0L390.0 101.0L509.0 101.0L509.0 139.0Z" fill-rule="nonzero"/><path fill="#ea4335" clip-path="url(#id_0)" d="M390.0 139.0L390.0 101.0L509.0 101.0L509.0 139.0Z" fill-rule="nonzero"/><path stroke="#000000" stroke-width="2.0" stroke-linecap="butt" stroke-opacity="0.0" clip-path="url(#id_0)" d="M343.0 197.0L343.0 159.0L510.0 159.0L510.0 197.0Z" fill-rule="nonzero"/><path fill="#ea4335" clip-path="url(#id_0)" d="M343.0 197.0L343.0 159.0L510.0 159.0L510.0 197.0Z" fill-rule="nonzero"/><path stroke="#000000" stroke-width="2.0" stroke-linecap="butt" stroke-opacity="0.0" clip-path="url(#id_0)" d="M357.0 255.0L357.0 217.0L549.0 217.0L549.0 255.0Z" fill-rule="nonzero"/><path fill="#ea4335" clip-path="url(#id_0)" d="M357.0 255.0L357.0 217.0L549.0 217.0L549.0 255.0Z" fill-rule="nonzero"/><path stroke="#000000" stroke-width="2.0" stroke-linecap="butt" stroke-opacity="0.0" clip-path="url(#id_0)" d="M319.0 312.0L319.0 274.0L546.0 274.0L546.0 312.0Z" fill-rule="nonzero"/><path fill="#ea4335" clip-path="url(#id_0)" d="M319.0 312.0L319.0 274.0L546.0 274.0L546.0 312.0Z" fill-rule="nonzero"/><path stroke="#000000" stroke-width="2.0" stroke-linecap="butt" stroke-opacity="0.0" clip-path="url(#id_0)" d="M509.0 139.0L509.0 101.0L545.0 101.0L545.0 139.0Z" fill-rule="nonzero"/><path fill="#fbbc04" clip-path="url(#id_0)" d="M509.0 139.0L509.0 101.0L545.0 101.0L545.0 139.0Z" fill-rule="nonzero"/><path stroke="#000000" stroke-width="2.0" stroke-linecap="butt" stroke-opacity="0.0" clip-path="url(#id_0)" d="M510.0 197.0L510.0 159.0L548.0 159.0L548.0 197.0Z" fill-rule="nonzero"/><path fill="#fbbc04" clip-path="url(#id_0)" d="M510.0 197.0L510.0 159.0L548.0 159.0L548.0 197.0Z" fill-rule="nonzero"/><path stroke="#000000" stroke-width="2.0" stroke-linecap="butt" stroke-opacity="0.0" clip-path="url(#id_0)" d="M549.0 255.0L549.0 217.0L567.0 217.0L567.0 255.0Z" fill-rule="nonzero"/><path fill="#fbbc04" clip-path="url(#id_0)" d="M549.0 255.0L549.0 217.0L567.0 217.0L567.0 255.0Z" fill-rule="nonzero"/><path stroke="#000000" stroke-width="2.0" stroke-linecap="butt" stroke-opacity="0.0" clip-path="url(#id_0)" d="M546.0 312.0L546.0 274.0L564.0 274.0L564.0 312.0Z" fill-rule="nonzero"/><path fill="#fbbc04" clip-path="url(#id_0)" d="M546.0 312.0L546.0 274.0L564.0 274.0L564.0 312.0Z" fill-rule="nonzero"/><path stroke="#000000" stroke-width="2.0" stroke-linecap="butt" stroke-opacity="0.0" clip-path="url(#id_0)" d="M545.0 139.0L545.0 101.0L576.0 101.0L576.0 139.0Z" fill-rule="nonzero"/><path fill="#34a853" clip-path="url(#id_0)" d="M545.0 139.0L545.0 101.0L576.0 101.0L576.0 139.0Z" fill-rule="nonzero"/><path stroke="#000000" stroke-width="2.0" stroke-linecap="butt" stroke-opacity="0.0" clip-path="url(#id_0)" d="M548.0 197.0L548.0 159.0L577.0 159.0L577.0 197.0Z" fill-rule="nonzero"/><path fill="#34a853" clip-path="url(#id_0)" d="M548.0 197.0L548.0 159.0L577.0 159.0L577.0 197.0Z" fill-rule="nonzero"/><path stroke="#000000" stroke-width="2.0" stroke-linecap="butt" stroke-opacity="0.0" clip-path="url(#id_0)" d="M567.0 255.0L567.0 217.0L572.0 217.0L572.0 255.0Z" fill-rule="nonzero"/><path fill="#34a853" clip-path="url(#id_0)" d="M567.0 255.0L567.0 217.0L572.0 217.0L572.0 255.0Z" fill-rule="nonzero"/><path stroke="#000000" stroke-width="2.0" stroke-linecap="butt" stroke-opacity="0.0" clip-path="url(#id_0)" d="M564.0 312.0L564.0 274.0L573.0 274.0L573.0 312.0Z" fill-rule="nonzero"/><path fill="#34a853" clip-path="url(#id_0)" d="M564.0 312.0L564.0 274.0L573.0 274.0L573.0 312.0Z" fill-rule="nonzero"/><path stroke="#000000" stroke-width="2.0" stroke-linecap="butt" stroke-opacity="0.0" clip-path="url(#id_0)" d="M576.0 139.0L576.0 101.0L579.0 101.0C580.10455 101.0 581.0 101.89543 581.0 103.0L581.0 137.0C581.0 138.10457 580.10455 139.0 579.0 139.0Z" fill-rule="nonzero"/><path fill="#ff6d01" clip-path="url(#id_0)" d="M576.0 139.0L576.0 101.0L579.0 101.0C580.10455 101.0 581.0 101.89543 581.0 103.0L581.0 137.0C581.0 138.10457 580.10455 139.0 579.0 139.0Z" fill-rule="nonzero"/><path stroke="#000000" stroke-width="2.0" stroke-linecap="butt" stroke-opacity="0.0" clip-path="url(#id_0)" d="M577.0 197.0L577.0 159.0L579.0 159.0C580.10455 159.0 581.0 159.89543 581.0 161.0L581.0 195.0C581.0 196.10457 580.10455 197.0 579.0 197.0Z" fill-rule="nonzero"/><path fill="#ff6d01" clip-path="url(#id_0)" d="M577.0 197.0L577.0 159.0L579.0 159.0C580.10455 159.0 581.0 159.89543 581.0 161.0L581.0 195.0C581.0 196.10457 580.10455 197.0 579.0 197.0Z" fill-rule="nonzero"/><path stroke="#000000" stroke-width="2.0" stroke-linecap="butt" stroke-opacity="0.0" clip-path="url(#id_0)" d="M572.0 255.0L572.0 217.0L579.0 217.0C580.10455 217.0 581.0 217.89543 581.0 219.0L581.0 253.0C581.0 254.10457 580.10455 255.0 579.0 255.0Z" fill-rule="nonzero"/><path fill="#ff6d01" clip-path="url(#id_0)" d="M572.0 255.0L572.0 217.0L579.0 217.0C580.10455 217.0 581.0 217.89543 581.0 219.0L581.0 253.0C581.0 254.10457 580.10455 255.0 579.0 255.0Z" fill-rule="nonzero"/><path stroke="#000000" stroke-width="2.0" stroke-linecap="butt" stroke-opacity="0.0" clip-path="url(#id_0)" d="M573.0 312.0L573.0 274.0L579.0 274.0C580.10455 274.0 581.0 274.89542 581.0 276.0L581.0 310.0C581.0 311.10458 580.10455 312.0 579.0 312.0Z" fill-rule="nonzero"/><path fill="#ff6d01" clip-path="url(#id_0)" d="M573.0 312.0L573.0 274.0L579.0 274.0C580.10455 274.0 581.0 274.89542 581.0 276.0L581.0 310.0C581.0 311.10458 580.10455 312.0 579.0 312.0Z" fill-rule="nonzero"/><path fill="#000000" d="M41.534374 124.25747L44.83125 115.66372L46.05 115.66372L49.565624 124.25747L48.284374 124.25747L47.26875 121.648094L43.690624 121.648094L42.7375 124.25747L41.534374 124.25747ZM44.01875 120.72622L46.925 120.72622L46.034374 118.35122Q45.6125 117.273094 45.425 116.56997Q45.253124 117.398094 44.95625 118.210594L44.01875 120.72622ZM49.346874 126.648094L49.346874 118.03872L50.3 118.03872L50.3 118.835594Q50.64375 118.366844 51.065624 118.13247Q51.503124 117.898094 52.1125 117.898094Q52.909374 117.898094 53.51875 118.304344Q54.128124 118.710594 54.425 119.460594Q54.7375 120.210594 54.7375 121.10122Q54.7375 122.054344 54.39375 122.81997Q54.065624 123.585594 53.409374 123.991844Q52.753124 124.398094 52.034374 124.398094Q51.503124 124.398094 51.08125 124.179344Q50.659374 123.94497 50.39375 123.616844L50.39375 126.648094L49.346874 126.648094ZM50.3 121.179344Q50.3 122.38247 50.784374 122.960594Q51.26875 123.523094 51.95625 123.523094Q52.659374 123.523094 53.159374 122.929344Q53.659374 122.335594 53.659374 121.085594Q53.659374 119.898094 53.175 119.31997Q52.690624 118.72622 52.003124 118.72622Q51.33125 118.72622 50.815624 119.35122Q50.3 119.97622 50.3 121.179344ZM56.346874 126.648094L56.346874 118.03872L57.3 118.03872L57.3 118.835594Q57.64375 118.366844 58.065624 118.13247Q58.503124 117.898094 59.1125 117.898094Q59.909374 117.898094 60.51875 118.304344Q61.128124 118.710594 61.425 119.460594Q61.7375 120.210594 61.7375 121.10122Q61.7375 122.054344 61.39375 122.81997Q61.065624 123.585594 60.409374 123.991844Q59.753124 124.398094 59.034374 124.398094Q58.503124 124.398094 58.08125 124.179344Q57.659374 123.94497 57.39375 123.616844L57.39375 126.648094L56.346874 126.648094ZM57.3 121.179344Q57.3 122.38247 57.784374 122.960594Q58.26875 123.523094 58.95625 123.523094Q59.659374 123.523094 60.159374 122.929344Q60.659374 122.335594 60.659374 121.085594Q60.659374 119.898094 60.175 119.31997Q59.690624 118.72622 59.003124 118.72622Q58.33125 118.72622 57.815624 119.35122Q57.3 119.97622 57.3 121.179344ZM63.315624 124.25747L63.315624 115.66372L64.37813 115.66372L64.37813 124.25747L63.315624 124.25747ZM70.59688 122.25747L71.69063 122.38247Q71.44063 123.335594 70.7375 123.866844Q70.03438 124.398094 68.95625 124.398094Q67.59688 124.398094 66.78438 123.554344Q65.9875 122.710594 65.9875 121.19497Q65.9875 119.63247 66.8 118.773094Q67.6125 117.898094 68.89375 117.898094Q70.14375 117.898094 70.925 118.741844Q71.72188 119.585594 71.72188 121.13247Q71.72188 121.22622 71.72188 121.41372L67.08125 121.41372Q67.14375 122.44497 67.65938 122.991844Q68.175 123.523094 68.95625 123.523094Q69.53438 123.523094 69.94063 123.22622Q70.3625 122.91372 70.59688 122.25747ZM67.14375 120.554344L70.6125 120.554344Q70.55 119.75747 70.22188 119.366844Q69.70625 118.75747 68.90938 118.75747Q68.175 118.75747 67.675 119.241844Q67.19063 119.72622 67.14375 120.554344ZM81.59688 123.241844L81.59688 124.25747L75.90938 124.25747Q75.90938 123.88247 76.03438 123.523094Q76.25313 122.94497 76.72188 122.38247Q77.20625 121.81997 78.1125 121.085594Q79.51875 119.929344 80.00313 119.25747Q80.50313 118.585594 80.50313 117.991844Q80.50313 117.366844 80.05 116.94497Q79.59688 116.50747 78.87813 116.50747Q78.1125 116.50747 77.65938 116.960594Q77.20625 117.41372 77.19063 118.22622L76.1125 118.116844Q76.22188 116.898094 76.94063 116.273094Q77.675 115.63247 78.90938 115.63247Q80.14375 115.63247 80.8625 116.31997Q81.58125 117.00747 81.58125 118.023094Q81.58125 118.53872 81.3625 119.03872Q81.15938 119.523094 80.65938 120.085594Q80.175 120.63247 79.05 121.585594Q78.09688 122.38247 77.81563 122.679344Q77.55 122.960594 77.37813 123.241844L81.59688 123.241844ZM83.05 120.023094Q83.05 118.491844 83.3625 117.56997Q83.675 116.63247 84.28438 116.13247Q84.90938 115.63247 85.84688 115.63247Q86.53438 115.63247 87.05 115.91372Q87.58125 116.19497 87.925 116.72622Q88.26875 117.241844 88.45625 117.991844Q88.64375 118.741844 88.64375 120.023094Q88.64375 121.53872 88.33125 122.460594Q88.03438 123.38247 87.40938 123.898094Q86.8 124.398094 85.84688 124.398094Q84.6125 124.398094 83.89375 123.50747Q83.05 122.44497 83.05 120.023094ZM84.12813 120.023094Q84.12813 122.13247 84.62813 122.835594Q85.12813 123.53872 85.84688 123.53872Q86.58125 123.53872 87.06563 122.835594Q87.56563 122.13247 87.56563 120.023094Q87.56563 117.898094 87.06563 117.210594Q86.58125 116.50747 85.83125 116.50747Q85.1125 116.50747 84.675 117.116844Q84.12813 117.898094 84.12813 120.023094ZM94.01875 124.25747L92.97188 124.25747L92.97188 117.53872Q92.58125 117.898094 91.95625 118.273094Q91.34688 118.63247 90.8625 118.804344L90.8625 117.78872Q91.7375 117.366844 92.39375 116.78872Q93.06563 116.19497 93.34688 115.63247L94.01875 115.63247L94.01875 124.25747ZM100.425 124.25747L100.425 122.19497L96.70625 122.19497L96.70625 121.22622L100.62813 115.66372L101.4875 115.66372L101.4875 121.22622L102.64375 121.22622L102.64375 122.19497L101.4875 122.19497L101.4875 124.25747L100.425 124.25747ZM100.425 121.22622L100.425 117.366844L97.7375 121.22622L100.425 121.22622Z" fill-rule="nonzero"/><path fill="#000000" d="M41.534374 181.99693L44.83125 173.40318L46.05 173.40318L49.565624 181.99693L48.284374 181.99693L47.26875 179.38756L43.690624 179.38756L42.7375 181.99693L41.534374 181.99693ZM44.01875 178.46568L46.925 178.46568L46.034374 176.09068Q45.6125 175.01256 45.425 174.30943Q45.253124 175.13756 44.95625 175.95006L44.01875 178.46568ZM49.346874 184.38756L49.346874 175.77818L50.3 175.77818L50.3 176.57506Q50.64375 176.10631 51.065624 175.87193Q51.503124 175.63756 52.1125 175.63756Q52.909374 175.63756 53.51875 176.04381Q54.128124 176.45006 54.425 177.20006Q54.7375 177.95006 54.7375 178.84068Q54.7375 179.79381 54.39375 180.55943Q54.065624 181.32506 53.409374 181.73131Q52.753124 182.13756 52.034374 182.13756Q51.503124 182.13756 51.08125 181.91881Q50.659374 181.68443 50.39375 181.35631L50.39375 184.38756L49.346874 184.38756ZM50.3 178.91881Q50.3 180.12193 50.784374 180.70006Q51.26875 181.26256 51.95625 181.26256Q52.659374 181.26256 53.159374 180.66881Q53.659374 180.07506 53.659374 178.82506Q53.659374 177.63756 53.175 177.05943Q52.690624 176.46568 52.003124 176.46568Q51.33125 176.46568 50.815624 177.09068Q50.3 177.71568 50.3 178.91881ZM56.346874 184.38756L56.346874 175.77818L57.3 175.77818L57.3 176.57506Q57.64375 176.10631 58.065624 175.87193Q58.503124 175.63756 59.1125 175.63756Q59.909374 175.63756 60.51875 176.04381Q61.128124 176.45006 61.425 177.20006Q61.7375 177.95006 61.7375 178.84068Q61.7375 179.79381 61.39375 180.55943Q61.065624 181.32506 60.409374 181.73131Q59.753124 182.13756 59.034374 182.13756Q58.503124 182.13756 58.08125 181.91881Q57.659374 181.68443 57.39375 181.35631L57.39375 184.38756L56.346874 184.38756ZM57.3 178.91881Q57.3 180.12193 57.784374 180.70006Q58.26875 181.26256 58.95625 181.26256Q59.659374 181.26256 60.159374 180.66881Q60.659374 180.07506 60.659374 178.82506Q60.659374 177.63756 60.175 177.05943Q59.690624 176.46568 59.003124 176.46568Q58.33125 176.46568 57.815624 177.09068Q57.3 177.71568 57.3 178.91881ZM63.315624 181.99693L63.315624 173.40318L64.37813 173.40318L64.37813 181.99693L63.315624 181.99693ZM70.59688 179.99693L71.69063 180.12193Q71.44063 181.07506 70.7375 181.60631Q70.03438 182.13756 68.95625 182.13756Q67.59688 182.13756 66.78438 181.29381Q65.9875 180.45006 65.9875 178.93443Q65.9875 177.37193 66.8 176.51256Q67.6125 175.63756 68.89375 175.63756Q70.14375 175.63756 70.925 176.48131Q71.72188 177.32506 71.72188 178.87193Q71.72188 178.96568 71.72188 179.15318L67.08125 179.15318Q67.14375 180.18443 67.65938 180.73131Q68.175 181.26256 68.95625 181.26256Q69.53438 181.26256 69.94063 180.96568Q70.3625 180.65318 70.59688 179.99693ZM67.14375 178.29381L70.6125 178.29381Q70.55 177.49693 70.22188 177.10631Q69.70625 176.49693 68.90938 176.49693Q68.175 176.49693 67.675 176.98131Q67.19063 177.46568 67.14375 178.29381ZM81.59688 180.98131L81.59688 181.99693L75.90938 181.99693Q75.90938 181.62193 76.03438 181.26256Q76.25313 180.68443 76.72188 180.12193Q77.20625 179.55943 78.1125 178.82506Q79.51875 177.66881 80.00313 176.99693Q80.50313 176.32506 80.50313 175.73131Q80.50313 175.10631 80.05 174.68443Q79.59688 174.24693 78.87813 174.24693Q78.1125 174.24693 77.65938 174.70006Q77.20625 175.15318 77.19063 175.96568L76.1125 175.85631Q76.22188 174.63756 76.94063 174.01256Q77.675 173.37193 78.90938 173.37193Q80.14375 173.37193 80.8625 174.05943Q81.58125 174.74693 81.58125 175.76256Q81.58125 176.27818 81.3625 176.77818Q81.15938 177.26256 80.65938 177.82506Q80.175 178.37193 79.05 179.32506Q78.09688 180.12193 77.81563 180.41881Q77.55 180.70006 77.37813 180.98131L81.59688 180.98131ZM83.05 177.76256Q83.05 176.23131 83.3625 175.30943Q83.675 174.37193 84.28438 173.87193Q84.90938 173.37193 85.84688 173.37193Q86.53438 173.37193 87.05 173.65318Q87.58125 173.93443 87.925 174.46568Q88.26875 174.98131 88.45625 175.73131Q88.64375 176.48131 88.64375 177.76256Q88.64375 179.27818 88.33125 180.20006Q88.03438 181.12193 87.40938 181.63756Q86.8 182.13756 85.84688 182.13756Q84.6125 182.13756 83.89375 181.24693Q83.05 180.18443 83.05 177.76256ZM84.12813 177.76256Q84.12813 179.87193 84.62813 180.57506Q85.12813 181.27818 85.84688 181.27818Q86.58125 181.27818 87.06563 180.57506Q87.56563 179.87193 87.56563 177.76256Q87.56563 175.63756 87.06563 174.95006Q86.58125 174.24693 85.83125 174.24693Q85.1125 174.24693 84.675 174.85631Q84.12813 175.63756 84.12813 177.76256ZM94.01875 181.99693L92.97188 181.99693L92.97188 175.27818Q92.58125 175.63756 91.95625 176.01256Q91.34688 176.37193 90.8625 176.54381L90.8625 175.52818Q91.7375 175.10631 92.39375 174.52818Q93.06563 173.93443 93.34688 173.37193L94.01875 173.37193L94.01875 181.99693ZM98.675 177.34068Q98.01875 177.09068 97.69063 176.65318Q97.37813 176.20006 97.37813 175.59068Q97.37813 174.65318 98.05 174.01256Q98.7375 173.37193 99.84688 173.37193Q100.97188 173.37193 101.65938 174.02818Q102.34688 174.68443 102.34688 175.62193Q102.34688 176.21568 102.03438 176.65318Q101.72188 177.09068 101.08125 177.34068Q101.87813 177.59068 102.28438 178.16881Q102.69063 178.74693 102.69063 179.54381Q102.69063 180.63756 101.90938 181.38756Q101.14375 182.13756 99.8625 182.13756Q98.59688 182.13756 97.81563 181.38756Q97.03438 180.63756 97.03438 179.51256Q97.03438 178.66881 97.45625 178.10631Q97.89375 177.54381 98.675 177.34068ZM98.45625 175.54381Q98.45625 176.15318 98.84688 176.54381Q99.25313 176.93443 99.87813 176.93443Q100.4875 176.93443 100.87813 176.55943Q101.26875 176.16881 101.26875 175.60631Q101.26875 175.02818 100.8625 174.63756Q100.45625 174.23131 99.8625 174.23131Q99.25313 174.23131 98.84688 174.62193Q98.45625 175.01256 98.45625 175.54381ZM98.12813 179.51256Q98.12813 179.96568 98.33125 180.38756Q98.55 180.80943 98.97188 181.04381Q99.39375 181.27818 99.87813 181.27818Q100.62813 181.27818 101.1125 180.79381Q101.6125 180.30943 101.6125 179.55943Q101.6125 178.79381 101.1125 178.29381Q100.6125 177.79381 99.84688 177.79381Q99.09688 177.79381 98.6125 178.29381Q98.12813 178.77818 98.12813 179.51256Z" fill-rule="nonzero"/><path fill="#000000" d="M19.534374 239.7364L19.534374 231.14265L25.33125 231.14265L25.33125 232.15828L20.675 232.15828L20.675 234.81453L24.70625 234.81453L24.70625 235.83015L20.675 235.83015L20.675 239.7364L19.534374 239.7364ZM30.409374 238.97078Q29.815624 239.47078 29.26875 239.6739Q28.7375 239.87703 28.1125 239.87703Q27.08125 239.87703 26.534374 239.37703Q25.9875 238.87703 25.9875 238.09578Q25.9875 237.64265 26.190624 237.26765Q26.39375 236.87703 26.7375 236.65828Q27.08125 236.4239 27.503124 236.31453Q27.8 236.22078 28.440624 236.14265Q29.70625 236.00203 30.315624 235.78328Q30.315624 235.56453 30.315624 235.51765Q30.315624 234.8614 30.01875 234.59578Q29.6125 234.25203 28.815624 234.25203Q28.08125 234.25203 27.721874 234.51765Q27.3625 234.76765 27.190624 235.4239L26.159374 235.28328Q26.3 234.62703 26.628124 234.22078Q26.95625 233.81453 27.565624 233.59578Q28.175 233.37703 28.971874 233.37703Q29.76875 233.37703 30.26875 233.56453Q30.76875 233.75203 31.003124 234.03328Q31.2375 234.31453 31.33125 234.75203Q31.378124 235.01765 31.378124 235.72078L31.378124 237.12703Q31.378124 238.59578 31.440624 238.9864Q31.51875 239.37703 31.721874 239.7364L30.6125 239.7364Q30.45625 239.40828 30.409374 238.97078ZM30.315624 236.6114Q29.7375 236.84578 28.596874 237.01765Q27.940624 237.1114 27.675 237.2364Q27.409374 237.34578 27.253124 237.56453Q27.1125 237.78328 27.1125 238.06453Q27.1125 238.4864 27.425 238.76765Q27.753124 239.0489 28.3625 239.0489Q28.971874 239.0489 29.440624 238.78328Q29.925 238.51765 30.14375 238.0489Q30.315624 237.68953 30.315624 237.00203L30.315624 236.6114ZM37.409374 237.45515L38.440624 237.59578Q38.26875 238.65828 37.565624 239.26765Q36.8625 239.87703 35.846874 239.87703Q34.565624 239.87703 33.784374 239.0489Q33.01875 238.20515 33.01875 236.64265Q33.01875 235.64265 33.346874 234.89265Q33.690624 234.12703 34.3625 233.75203Q35.05 233.37703 35.8625 233.37703Q36.8625 233.37703 37.503124 233.89265Q38.159374 234.39265 38.346874 235.34578L37.315624 235.50203Q37.175 234.87703 36.8 234.56453Q36.425 234.2364 35.89375 234.2364Q35.096874 234.2364 34.596874 234.81453Q34.096874 235.37703 34.096874 236.6114Q34.096874 237.87703 34.58125 238.43953Q35.065624 239.00203 35.83125 239.00203Q36.45625 239.00203 36.8625 238.62703Q37.284374 238.25203 37.409374 237.45515ZM43.596874 237.7364L44.690624 237.8614Q44.440624 238.81453 43.7375 239.34578Q43.034374 239.87703 41.95625 239.87703Q40.596874 239.87703 39.784374 239.03328Q38.9875 238.18953 38.9875 236.6739Q38.9875 235.1114 39.8 234.25203Q40.6125 233.37703 41.89375 233.37703Q43.14375 233.37703 43.925 234.22078Q44.721874 235.06453 44.721874 236.6114Q44.721874 236.70515 44.721874 236.89265L40.08125 236.89265Q40.14375 237.9239 40.659374 238.47078Q41.175 239.00203 41.95625 239.00203Q42.534374 239.00203 42.940624 238.70515Q43.3625 238.39265 43.596874 237.7364ZM40.14375 236.03328L43.6125 236.03328Q43.55 235.2364 43.221874 234.84578Q42.70625 234.2364 41.909374 234.2364Q41.175 234.2364 40.675 234.72078Q40.190624 235.20515 40.14375 236.03328ZM47.315624 239.7364L46.33125 239.7364L46.33125 231.14265L47.39375 231.14265L47.39375 234.20515Q48.065624 233.37703 49.096874 233.37703Q49.675 233.37703 50.175 233.6114Q50.690624 233.83015 51.01875 234.25203Q51.3625 234.6739 51.55 235.26765Q51.7375 235.8614 51.7375 236.53328Q51.7375 238.12703 50.940624 239.00203Q50.14375 239.87703 49.05 239.87703Q47.940624 239.87703 47.315624 238.95515L47.315624 239.7364ZM47.3 236.58015Q47.3 237.68953 47.6125 238.18953Q48.1125 239.00203 48.95625 239.00203Q49.64375 239.00203 50.14375 238.40828Q50.659374 237.81453 50.659374 236.6114Q50.659374 235.39265 50.175 234.81453Q49.690624 234.2364 49.003124 234.2364Q48.315624 234.2364 47.8 234.84578Q47.3 235.43953 47.3 236.58015ZM52.95625 236.62703Q52.95625 234.89265 53.909374 234.06453Q54.70625 233.37703 55.8625 233.37703Q57.14375 233.37703 57.95625 234.22078Q58.784374 235.0489 58.784374 236.53328Q58.784374 237.7364 58.425 238.4239Q58.065624 239.1114 57.3625 239.50203Q56.675 239.87703 55.8625 239.87703Q54.565624 239.87703 53.753124 239.0489Q52.95625 238.20515 52.95625 236.62703ZM54.034374 236.62703Q54.034374 237.81453 54.55 238.40828Q55.08125 239.00203 55.8625 239.00203Q56.659374 239.00203 57.175 238.40828Q57.690624 237.81453 57.690624 236.59578Q57.690624 235.43953 57.159374 234.84578Q56.64375 234.25203 55.8625 234.25203Q55.08125 234.25203 54.55 234.84578Q54.034374 235.4239 54.034374 236.62703ZM59.95625 236.62703Q59.95625 234.89265 60.909374 234.06453Q61.70625 233.37703 62.8625 233.37703Q64.14375 233.37703 64.95625 234.22078Q65.78438 235.0489 65.78438 236.53328Q65.78438 237.7364 65.425 238.4239Q65.06563 239.1114 64.3625 239.50203Q63.675 239.87703 62.8625 239.87703Q61.565624 239.87703 60.753124 239.0489Q59.95625 238.20515 59.95625 236.62703ZM61.034374 236.62703Q61.034374 237.81453 61.55 238.40828Q62.08125 239.00203 62.8625 239.00203Q63.659374 239.00203 64.175 238.40828Q64.69063 237.81453 64.69063 236.59578Q64.69063 235.43953 64.15938 234.84578Q63.64375 234.25203 62.8625 234.25203Q62.08125 234.25203 61.55 234.84578Q61.034374 235.4239 61.034374 236.62703ZM67.34688 239.7364L67.34688 231.14265L68.40938 231.14265L68.40938 236.0489L70.89375 233.51765L72.26875 233.51765L69.87813 235.81453L72.50313 239.7364L71.20625 239.7364L69.14375 236.5489L68.40938 237.26765L68.40938 239.7364L67.34688 239.7364ZM81.59688 238.72078L81.59688 239.7364L75.90938 239.7364Q75.90938 239.3614 76.03438 239.00203Q76.25313 238.4239 76.72188 237.8614Q77.20625 237.2989 78.1125 236.56453Q79.51875 235.40828 80.00313 234.7364Q80.50313 234.06453 80.50313 233.47078Q80.50313 232.84578 80.05 232.4239Q79.59688 231.9864 78.87813 231.9864Q78.1125 231.9864 77.65938 232.43953Q77.20625 232.89265 77.19063 233.70515L76.1125 233.59578Q76.22188 232.37703 76.94063 231.75203Q77.675 231.1114 78.90938 231.1114Q80.14375 231.1114 80.8625 231.7989Q81.58125 232.4864 81.58125 233.50203Q81.58125 234.01765 81.3625 234.51765Q81.15938 235.00203 80.65938 235.56453Q80.175 236.1114 79.05 237.06453Q78.09688 237.8614 77.81563 238.15828Q77.55 238.43953 77.37813 238.72078L81.59688 238.72078ZM83.05 235.50203Q83.05 233.97078 83.3625 233.0489Q83.675 232.1114 84.28438 231.6114Q84.90938 231.1114 85.84688 231.1114Q86.53438 231.1114 87.05 231.39265Q87.58125 231.6739 87.925 232.20515Q88.26875 232.72078 88.45625 233.47078Q88.64375 234.22078 88.64375 235.50203Q88.64375 237.01765 88.33125 237.93953Q88.03438 238.8614 87.40938 239.37703Q86.8 239.87703 85.84688 239.87703Q84.6125 239.87703 83.89375 238.9864Q83.05 237.9239 83.05 235.50203ZM84.12813 235.50203Q84.12813 237.6114 84.62813 238.31453Q85.12813 239.01765 85.84688 239.01765Q86.58125 239.01765 87.06563 238.31453Q87.56563 237.6114 87.56563 235.50203Q87.56563 233.37703 87.06563 232.68953Q86.58125 231.9864 85.83125 231.9864Q85.1125 231.9864 84.675 232.59578Q84.12813 233.37703 84.12813 235.50203ZM94.01875 239.7364L92.97188 239.7364L92.97188 233.01765Q92.58125 233.37703 91.95625 233.75203Q91.34688 234.1114 90.8625 234.28328L90.8625 233.26765Q91.7375 232.84578 92.39375 232.26765Q93.06563 231.6739 93.34688 231.1114L94.01875 231.1114L94.01875 239.7364ZM100.425 239.7364L100.425 237.6739L96.70625 237.6739L96.70625 236.70515L100.62813 231.14265L101.4875 231.14265L101.4875 236.70515L102.64375 236.70515L102.64375 237.6739L101.4875 237.6739L101.4875 239.7364L100.425 239.7364ZM100.425 236.70515L100.425 232.84578L97.7375 236.70515L100.425 236.70515Z" fill-rule="nonzero"/><path fill="#000000" d="M19.534374 297.47586L19.534374 288.8821L25.33125 288.8821L25.33125 289.89774L20.675 289.89774L20.675 292.554L24.70625 292.554L24.70625 293.5696L20.675 293.5696L20.675 297.47586L19.534374 297.47586ZM30.409374 296.71024Q29.815624 297.21024 29.26875 297.41336Q28.7375 297.6165 28.1125 297.6165Q27.08125 297.6165 26.534374 297.1165Q25.9875 296.6165 25.9875 295.83524Q25.9875 295.3821 26.190624 295.0071Q26.39375 294.6165 26.7375 294.39774Q27.08125 294.16336 27.503124 294.054Q27.8 293.96024 28.440624 293.8821Q29.70625 293.7415 30.315624 293.52274Q30.315624 293.304 30.315624 293.2571Q30.315624 292.60086 30.01875 292.33524Q29.6125 291.9915 28.815624 291.9915Q28.08125 291.9915 27.721874 292.2571Q27.3625 292.5071 27.190624 293.16336L26.159374 293.02274Q26.3 292.3665 26.628124 291.96024Q26.95625 291.554 27.565624 291.33524Q28.175 291.1165 28.971874 291.1165Q29.76875 291.1165 30.26875 291.304Q30.76875 291.4915 31.003124 291.77274Q31.2375 292.054 31.33125 292.4915Q31.378124 292.7571 31.378124 293.46024L31.378124 294.8665Q31.378124 296.33524 31.440624 296.72586Q31.51875 297.1165 31.721874 297.47586L30.6125 297.47586Q30.45625 297.14774 30.409374 296.71024ZM30.315624 294.35086Q29.7375 294.58524 28.596874 294.7571Q27.940624 294.85086 27.675 294.97586Q27.409374 295.08524 27.253124 295.304Q27.1125 295.52274 27.1125 295.804Q27.1125 296.22586 27.425 296.5071Q27.753124 296.78836 28.3625 296.78836Q28.971874 296.78836 29.440624 296.52274Q29.925 296.2571 30.14375 295.78836Q30.315624 295.429 30.315624 294.7415L30.315624 294.35086ZM37.409374 295.1946L38.440624 295.33524Q38.26875 296.39774 37.565624 297.0071Q36.8625 297.6165 35.846874 297.6165Q34.565624 297.6165 33.784374 296.78836Q33.01875 295.9446 33.01875 294.3821Q33.01875 293.3821 33.346874 292.6321Q33.690624 291.8665 34.3625 291.4915Q35.05 291.1165 35.8625 291.1165Q36.8625 291.1165 37.503124 291.6321Q38.159374 292.1321 38.346874 293.08524L37.315624 293.2415Q37.175 292.6165 36.8 292.304Q36.425 291.97586 35.89375 291.97586Q35.096874 291.97586 34.596874 292.554Q34.096874 293.1165 34.096874 294.35086Q34.096874 295.6165 34.58125 296.179Q35.065624 296.7415 35.83125 296.7415Q36.45625 296.7415 36.8625 296.3665Q37.284374 295.9915 37.409374 295.1946ZM43.596874 295.47586L44.690624 295.60086Q44.440624 296.554 43.7375 297.08524Q43.034374 297.6165 41.95625 297.6165Q40.596874 297.6165 39.784374 296.77274Q38.9875 295.929 38.9875 294.41336Q38.9875 292.85086 39.8 291.9915Q40.6125 291.1165 41.89375 291.1165Q43.14375 291.1165 43.925 291.96024Q44.721874 292.804 44.721874 294.35086Q44.721874 294.4446 44.721874 294.6321L40.08125 294.6321Q40.14375 295.66336 40.659374 296.21024Q41.175 296.7415 41.95625 296.7415Q42.534374 296.7415 42.940624 296.4446Q43.3625 296.1321 43.596874 295.47586ZM40.14375 293.77274L43.6125 293.77274Q43.55 292.97586 43.221874 292.58524Q42.70625 291.97586 41.909374 291.97586Q41.175 291.97586 40.675 292.46024Q40.190624 292.9446 40.14375 293.77274ZM47.315624 297.47586L46.33125 297.47586L46.33125 288.8821L47.39375 288.8821L47.39375 291.9446Q48.065624 291.1165 49.096874 291.1165Q49.675 291.1165 50.175 291.35086Q50.690624 291.5696 51.01875 291.9915Q51.3625 292.41336 51.55 293.0071Q51.7375 293.60086 51.7375 294.27274Q51.7375 295.8665 50.940624 296.7415Q50.14375 297.6165 49.05 297.6165Q47.940624 297.6165 47.315624 296.6946L47.315624 297.47586ZM47.3 294.3196Q47.3 295.429 47.6125 295.929Q48.1125 296.7415 48.95625 296.7415Q49.64375 296.7415 50.14375 296.14774Q50.659374 295.554 50.659374 294.35086Q50.659374 293.1321 50.175 292.554Q49.690624 291.97586 49.003124 291.97586Q48.315624 291.97586 47.8 292.58524Q47.3 293.179 47.3 294.3196ZM52.95625 294.3665Q52.95625 292.6321 53.909374 291.804Q54.70625 291.1165 55.8625 291.1165Q57.14375 291.1165 57.95625 291.96024Q58.784374 292.78836 58.784374 294.27274Q58.784374 295.47586 58.425 296.16336Q58.065624 296.85086 57.3625 297.2415Q56.675 297.6165 55.8625 297.6165Q54.565624 297.6165 53.753124 296.78836Q52.95625 295.9446 52.95625 294.3665ZM54.034374 294.3665Q54.034374 295.554 54.55 296.14774Q55.08125 296.7415 55.8625 296.7415Q56.659374 296.7415 57.175 296.14774Q57.690624 295.554 57.690624 294.33524Q57.690624 293.179 57.159374 292.58524Q56.64375 291.9915 55.8625 291.9915Q55.08125 291.9915 54.55 292.58524Q54.034374 293.16336 54.034374 294.3665ZM59.95625 294.3665Q59.95625 292.6321 60.909374 291.804Q61.70625 291.1165 62.8625 291.1165Q64.14375 291.1165 64.95625 291.96024Q65.78438 292.78836 65.78438 294.27274Q65.78438 295.47586 65.425 296.16336Q65.06563 296.85086 64.3625 297.2415Q63.675 297.6165 62.8625 297.6165Q61.565624 297.6165 60.753124 296.78836Q59.95625 295.9446 59.95625 294.3665ZM61.034374 294.3665Q61.034374 295.554 61.55 296.14774Q62.08125 296.7415 62.8625 296.7415Q63.659374 296.7415 64.175 296.14774Q64.69063 295.554 64.69063 294.33524Q64.69063 293.179 64.15938 292.58524Q63.64375 291.9915 62.8625 291.9915Q62.08125 291.9915 61.55 292.58524Q61.034374 293.16336 61.034374 294.3665ZM67.34688 297.47586L67.34688 288.8821L68.40938 288.8821L68.40938 293.78836L70.89375 291.2571L72.26875 291.2571L69.87813 293.554L72.50313 297.47586L71.20625 297.47586L69.14375 294.28836L68.40938 295.0071L68.40938 297.47586L67.34688 297.47586ZM81.59688 296.46024L81.59688 297.47586L75.90938 297.47586Q75.90938 297.10086 76.03438 296.7415Q76.25313 296.16336 76.72188 295.60086Q77.20625 295.03836 78.1125 294.304Q79.51875 293.14774 80.00313 292.47586Q80.50313 291.804 80.50313 291.21024Q80.50313 290.58524 80.05 290.16336Q79.59688 289.72586 78.87813 289.72586Q78.1125 289.72586 77.65938 290.179Q77.20625 290.6321 77.19063 291.4446L76.1125 291.33524Q76.22188 290.1165 76.94063 289.4915Q77.675 288.85086 78.90938 288.85086Q80.14375 288.85086 80.8625 289.53836Q81.58125 290.22586 81.58125 291.2415Q81.58125 291.7571 81.3625 292.2571Q81.15938 292.7415 80.65938 293.304Q80.175 293.85086 79.05 294.804Q78.09688 295.60086 77.81563 295.89774Q77.55 296.179 77.37813 296.46024L81.59688 296.46024ZM83.05 293.2415Q83.05 291.71024 83.3625 290.78836Q83.675 289.85086 84.28438 289.35086Q84.90938 288.85086 85.84688 288.85086Q86.53438 288.85086 87.05 289.1321Q87.58125 289.41336 87.925 289.9446Q88.26875 290.46024 88.45625 291.21024Q88.64375 291.96024 88.64375 293.2415Q88.64375 294.7571 88.33125 295.679Q88.03438 296.60086 87.40938 297.1165Q86.8 297.6165 85.84688 297.6165Q84.6125 297.6165 83.89375 296.72586Q83.05 295.66336 83.05 293.2415ZM84.12813 293.2415Q84.12813 295.35086 84.62813 296.054Q85.12813 296.7571 85.84688 296.7571Q86.58125 296.7571 87.06563 296.054Q87.56563 295.35086 87.56563 293.2415Q87.56563 291.1165 87.06563 290.429Q86.58125 289.72586 85.83125 289.72586Q85.1125 289.72586 84.675 290.33524Q84.12813 291.1165 84.12813 293.2415ZM94.01875 297.47586L92.97188 297.47586L92.97188 290.7571Q92.58125 291.1165 91.95625 291.4915Q91.34688 291.85086 90.8625 292.02274L90.8625 291.0071Q91.7375 290.58524 92.39375 290.0071Q93.06563 289.41336 93.34688 288.85086L94.01875 288.85086L94.01875 297.47586ZM98.675 292.8196Q98.01875 292.5696 97.69063 292.1321Q97.37813 291.679 97.37813 291.0696Q97.37813 290.1321 98.05 289.4915Q98.7375 288.85086 99.84688 288.85086Q100.97188 288.85086 101.65938 289.5071Q102.34688 290.16336 102.34688 291.10086Q102.34688 291.6946 102.03438 292.1321Q101.72188 292.5696 101.08125 292.8196Q101.87813 293.0696 102.28438 293.64774Q102.69063 294.22586 102.69063 295.02274Q102.69063 296.1165 101.90938 296.8665Q101.14375 297.6165 99.8625 297.6165Q98.59688 297.6165 97.81563 296.8665Q97.03438 296.1165 97.03438 294.9915Q97.03438 294.14774 97.45625 293.58524Q97.89375 293.02274 98.675 292.8196ZM98.45625 291.02274Q98.45625 291.6321 98.84688 292.02274Q99.25313 292.41336 99.87813 292.41336Q100.4875 292.41336 100.87813 292.03836Q101.26875 291.64774 101.26875 291.08524Q101.26875 290.5071 100.8625 290.1165Q100.45625 289.71024 99.8625 289.71024Q99.25313 289.71024 98.84688 290.10086Q98.45625 290.4915 98.45625 291.02274ZM98.12813 294.9915Q98.12813 295.4446 98.33125 295.8665Q98.55 296.28836 98.97188 296.52274Q99.39375 296.7571 99.87813 296.7571Q100.62813 296.7571 101.1125 296.27274Q101.6125 295.78836 101.6125 295.03836Q101.6125 294.27274 101.1125 293.77274Q100.6125 293.27274 99.84688 293.27274Q99.09688 293.27274 98.6125 293.77274Q98.12813 294.2571 98.12813 294.9915Z" fill-rule="nonzero"/><path fill="#000000" d="M101.05 345.21564Q101.05 343.6844 101.3625 342.7625Q101.675 341.825 102.28438 341.325Q102.90938 340.825 103.84688 340.825Q104.53438 340.825 105.05 341.10626Q105.58125 341.3875 105.925 341.91876Q106.26875 342.4344 106.45625 343.1844Q106.64375 343.9344 106.64375 345.21564Q106.64375 346.73126 106.33125 347.65314Q106.03438 348.575 105.40938 349.09064Q104.8 349.59064 103.84688 349.59064Q102.6125 349.59064 101.89375 348.7Q101.05 347.6375 101.05 345.21564ZM102.12813 345.21564Q102.12813 347.325 102.62813 348.02814Q103.12813 348.73126 103.84688 348.73126Q104.58125 348.73126 105.06563 348.02814Q105.56563 347.325 105.56563 345.21564Q105.56563 343.09064 105.06563 342.40314Q104.58125 341.7 103.83125 341.7Q103.1125 341.7 102.675 342.3094Q102.12813 343.09064 102.12813 345.21564ZM108.25313 342.91876Q108.25313 341.9969 108.70625 341.35626Q109.175 340.71564 110.05 340.71564Q110.8625 340.71564 111.39375 341.29376Q111.925 341.8719 111.925 342.98126Q111.925 344.075 111.37813 344.66876Q110.84688 345.2469 110.06563 345.2469Q109.28438 345.2469 108.76875 344.66876Q108.25313 344.09064 108.25313 342.91876ZM110.08125 341.4344Q109.69063 341.4344 109.425 341.77814Q109.175 342.1219 109.175 343.02814Q109.175 343.85626 109.425 344.2Q109.69063 344.52814 110.08125 344.52814Q110.4875 344.52814 110.7375 344.1844Q111.00313 343.84064 111.00313 342.95Q111.00313 342.10626 110.7375 341.77814Q110.47188 341.4344 110.08125 341.4344ZM110.08125 349.7625L114.78438 340.71564L115.64375 340.71564L110.95625 349.7625L110.08125 349.7625ZM113.8 347.4344Q113.8 346.5125 114.25313 345.8719Q114.72188 345.23126 115.6125 345.23126Q116.425 345.23126 116.95625 345.8094Q117.4875 346.3719 117.4875 347.4969Q117.4875 348.59064 116.94063 349.1844Q116.40938 349.7625 115.6125 349.7625Q114.84688 349.7625 114.31563 349.1844Q113.8 348.60626 113.8 347.4344ZM115.64375 345.95Q115.2375 345.95 114.97188 346.29376Q114.72188 346.6375 114.72188 347.54376Q114.72188 348.35626 114.9875 348.7Q115.25313 349.04376 115.64375 349.04376Q116.03438 349.04376 116.3 348.7Q116.56563 348.35626 116.56563 347.45Q116.56563 346.6219 116.3 346.29376Q116.03438 345.95 115.64375 345.95Z" fill-rule="nonzero"/><path fill="#000000" d="M221.07187 348.4344L221.07187 349.45L215.38437 349.45Q215.38437 349.075 215.50937 348.71564Q215.72812 348.1375 216.19687 347.575Q216.68124 347.0125 217.5875 346.27814Q218.99374 345.1219 219.47812 344.45Q219.97812 343.77814 219.97812 343.1844Q219.97812 342.5594 219.525 342.1375Q219.07187 341.7 218.35312 341.7Q217.5875 341.7 217.13437 342.15314Q216.68124 342.60626 216.66562 343.41876L215.5875 343.3094Q215.69687 342.09064 216.41562 341.46564Q217.15 340.825 218.38437 340.825Q219.61874 340.825 220.3375 341.5125Q221.05624 342.2 221.05624 343.21564Q221.05624 343.73126 220.8375 344.23126Q220.63437 344.71564 220.13437 345.27814Q219.65 345.825 218.525 346.77814Q217.57187 347.575 217.29062 347.8719Q217.025 348.15314 216.85312 348.4344L221.07187 348.4344ZM222.525 347.2L223.63437 347.10626Q223.75937 347.91876 224.19687 348.325Q224.65 348.73126 225.29062 348.73126Q226.04062 348.73126 226.57187 348.15314Q227.10312 347.575 227.10312 346.6375Q227.10312 345.73126 226.5875 345.21564Q226.0875 344.6844 225.25937 344.6844Q224.75937 344.6844 224.3375 344.91876Q223.93124 345.15314 223.69687 345.5125L222.7125 345.3875L223.54062 340.98126L227.82187 340.98126L227.82187 341.98126L224.38437 341.98126L223.93124 344.29376Q224.69687 343.7469 225.54062 343.7469Q226.66562 343.7469 227.43124 344.52814Q228.2125 345.3094 228.2125 346.54376Q228.2125 347.7 227.54062 348.5594Q226.7125 349.59064 225.29062 349.59064Q224.11874 349.59064 223.36874 348.9344Q222.63437 348.27814 222.525 347.2ZM229.72812 342.91876Q229.72812 341.9969 230.18124 341.35626Q230.65 340.71564 231.525 340.71564Q232.3375 340.71564 232.86874 341.29376Q233.4 341.8719 233.4 342.98126Q233.4 344.075 232.85312 344.66876Q232.32187 345.2469 231.54062 345.2469Q230.75937 345.2469 230.24374 344.66876Q229.72812 344.09064 229.72812 342.91876ZM231.55624 341.4344Q231.16562 341.4344 230.9 341.77814Q230.65 342.1219 230.65 343.02814Q230.65 343.85626 230.9 344.2Q231.16562 344.52814 231.55624 344.52814Q231.9625 344.52814 232.2125 344.1844Q232.47812 343.84064 232.47812 342.95Q232.47812 342.10626 232.2125 341.77814Q231.94687 341.4344 231.55624 341.4344ZM231.55624 349.7625L236.25937 340.71564L237.11874 340.71564L232.43124 349.7625L231.55624 349.7625ZM235.275 347.4344Q235.275 346.5125 235.72812 345.8719Q236.19687 345.23126 237.0875 345.23126Q237.9 345.23126 238.43124 345.8094Q238.9625 346.3719 238.9625 347.4969Q238.9625 348.59064 238.41562 349.1844Q237.88437 349.7625 237.0875 349.7625Q236.32187 349.7625 235.79062 349.1844Q235.275 348.60626 235.275 347.4344ZM237.11874 345.95Q236.7125 345.95 236.44687 346.29376Q236.19687 346.6375 236.19687 347.54376Q236.19687 348.35626 236.4625 348.7Q236.72812 349.04376 237.11874 349.04376Q237.50937 349.04376 237.775 348.7Q238.04062 348.35626 238.04062 347.45Q238.04062 346.6219 237.775 346.29376Q237.50937 345.95 237.11874 345.95Z" fill-rule="nonzero"/><path fill="#000000" d="M333.5 347.2L334.60938 347.10626Q334.73438 347.91876 335.17188 348.325Q335.625 348.73126 336.26562 348.73126Q337.01562 348.73126 337.54688 348.15314Q338.07812 347.575 338.07812 346.6375Q338.07812 345.73126 337.5625 345.21564Q337.0625 344.6844 336.23438 344.6844Q335.73438 344.6844 335.3125 344.91876Q334.90625 345.15314 334.67188 345.5125L333.6875 345.3875L334.51562 340.98126L338.79688 340.98126L338.79688 341.98126L335.35938 341.98126L334.90625 344.29376Q335.67188 343.7469 336.51562 343.7469Q337.64062 343.7469 338.40625 344.52814Q339.1875 345.3094 339.1875 346.54376Q339.1875 347.7 338.51562 348.5594Q337.6875 349.59064 336.26562 349.59064Q335.09375 349.59064 334.34375 348.9344Q333.60938 348.27814 333.5 347.2ZM340.5 345.21564Q340.5 343.6844 340.8125 342.7625Q341.125 341.825 341.73438 341.325Q342.35938 340.825 343.29688 340.825Q343.98438 340.825 344.5 341.10626Q345.03125 341.3875 345.375 341.91876Q345.71875 342.4344 345.90625 343.1844Q346.09375 343.9344 346.09375 345.21564Q346.09375 346.73126 345.78125 347.65314Q345.48438 348.575 344.85938 349.09064Q344.25 349.59064 343.29688 349.59064Q342.0625 349.59064 341.34375 348.7Q340.5 347.6375 340.5 345.21564ZM341.57812 345.21564Q341.57812 347.325 342.07812 348.02814Q342.57812 348.73126 343.29688 348.73126Q344.03125 348.73126 344.51562 348.02814Q345.01562 347.325 345.01562 345.21564Q345.01562 343.09064 344.51562 342.40314Q344.03125 341.7 343.28125 341.7Q342.5625 341.7 342.125 342.3094Q341.57812 343.09064 341.57812 345.21564ZM347.70312 342.91876Q347.70312 341.9969 348.15625 341.35626Q348.625 340.71564 349.5 340.71564Q350.3125 340.71564 350.84375 341.29376Q351.375 341.8719 351.375 342.98126Q351.375 344.075 350.82812 344.66876Q350.29688 345.2469 349.51562 345.2469Q348.73438 345.2469 348.21875 344.66876Q347.70312 344.09064 347.70312 342.91876ZM349.53125 341.4344Q349.14062 341.4344 348.875 341.77814Q348.625 342.1219 348.625 343.02814Q348.625 343.85626 348.875 344.2Q349.14062 344.52814 349.53125 344.52814Q349.9375 344.52814 350.1875 344.1844Q350.45312 343.84064 350.45312 342.95Q350.45312 342.10626 350.1875 341.77814Q349.92188 341.4344 349.53125 341.4344ZM349.53125 349.7625L354.23438 340.71564L355.09375 340.71564L350.40625 349.7625L349.53125 349.7625ZM353.25 347.4344Q353.25 346.5125 353.70312 345.8719Q354.17188 345.23126 355.0625 345.23126Q355.875 345.23126 356.40625 345.8094Q356.9375 346.3719 356.9375 347.4969Q356.9375 348.59064 356.39062 349.1844Q355.85938 349.7625 355.0625 349.7625Q354.29688 349.7625 353.76562 349.1844Q353.25 348.60626 353.25 347.4344ZM355.09375 345.95Q354.6875 345.95 354.42188 346.29376Q354.17188 346.6375 354.17188 347.54376Q354.17188 348.35626 354.4375 348.7Q354.70312 349.04376 355.09375 349.04376Q355.48438 349.04376 355.75 348.7Q356.01562 348.35626 356.01562 347.45Q356.01562 346.6219 355.75 346.29376Q355.48438 345.95 355.09375 345.95Z" fill-rule="nonzero"/><path fill="#000000" d="M451.5375 341.98126L451.5375 340.96564L457.1 340.96564L457.1 341.79376Q456.2875 342.66876 455.475 344.1219Q454.67813 345.5594 454.24063 347.09064Q453.9125 348.16876 453.83438 349.45L452.74063 349.45Q452.75626 348.4344 453.13126 346.9969Q453.52188 345.5594 454.225 344.23126Q454.94376 342.90314 455.75626 341.98126L451.5375 341.98126ZM458.475 347.2L459.58438 347.10626Q459.70938 347.91876 460.14688 348.325Q460.6 348.73126 461.24063 348.73126Q461.99063 348.73126 462.52188 348.15314Q463.05313 347.575 463.05313 346.6375Q463.05313 345.73126 462.5375 345.21564Q462.0375 344.6844 461.20938 344.6844Q460.70938 344.6844 460.2875 344.91876Q459.88126 345.15314 459.64688 345.5125L458.6625 345.3875L459.49063 340.98126L463.77188 340.98126L463.77188 341.98126L460.33438 341.98126L459.88126 344.29376Q460.64688 343.7469 461.49063 343.7469Q462.61563 343.7469 463.38126 344.52814Q464.1625 345.3094 464.1625 346.54376Q464.1625 347.7 463.49063 348.5594Q462.6625 349.59064 461.24063 349.59064Q460.06876 349.59064 459.31876 348.9344Q458.58438 348.27814 458.475 347.2ZM465.67813 342.91876Q465.67813 341.9969 466.13126 341.35626Q466.6 340.71564 467.475 340.71564Q468.2875 340.71564 468.81876 341.29376Q469.35 341.8719 469.35 342.98126Q469.35 344.075 468.80313 344.66876Q468.27188 345.2469 467.49063 345.2469Q466.70938 345.2469 466.19376 344.66876Q465.67813 344.09064 465.67813 342.91876ZM467.50626 341.4344Q467.11563 341.4344 466.85 341.77814Q466.6 342.1219 466.6 343.02814Q466.6 343.85626 466.85 344.2Q467.11563 344.52814 467.50626 344.52814Q467.9125 344.52814 468.1625 344.1844Q468.42813 343.84064 468.42813 342.95Q468.42813 342.10626 468.1625 341.77814Q467.89688 341.4344 467.50626 341.4344ZM467.50626 349.7625L472.20938 340.71564L473.06876 340.71564L468.38126 349.7625L467.50626 349.7625ZM471.225 347.4344Q471.225 346.5125 471.67813 345.8719Q472.14688 345.23126 473.0375 345.23126Q473.85 345.23126 474.38126 345.8094Q474.9125 346.3719 474.9125 347.4969Q474.9125 348.59064 474.36563 349.1844Q473.83438 349.7625 473.0375 349.7625Q472.27188 349.7625 471.74063 349.1844Q471.225 348.60626 471.225 347.4344ZM473.06876 345.95Q472.6625 345.95 472.39688 346.29376Q472.14688 346.6375 472.14688 347.54376Q472.14688 348.35626 472.4125 348.7Q472.67813 349.04376 473.06876 349.04376Q473.45938 349.04376 473.725 348.7Q473.99063 348.35626 473.99063 347.45Q473.99063 346.6219 473.725 346.29376Q473.45938 345.95 473.06876 345.95Z" fill-rule="nonzero"/><path fill="#000000" d="M569.91876 349.45L568.8719 349.45L568.8719 342.73126Q568.48126 343.09064 567.85626 343.46564Q567.2469 343.825 566.7625 343.9969L566.7625 342.98126Q567.6375 342.5594 568.29376 341.98126Q568.96564 341.3875 569.2469 340.825L569.91876 340.825L569.91876 349.45ZM572.95 345.21564Q572.95 343.6844 573.2625 342.7625Q573.575 341.825 574.1844 341.325Q574.8094 340.825 575.7469 340.825Q576.4344 340.825 576.95 341.10626Q577.48126 341.3875 577.825 341.91876Q578.16876 342.4344 578.35626 343.1844Q578.54376 343.9344 578.54376 345.21564Q578.54376 346.73126 578.23126 347.65314Q577.9344 348.575 577.3094 349.09064Q576.7 349.59064 575.7469 349.59064Q574.5125 349.59064 573.79376 348.7Q572.95 347.6375 572.95 345.21564ZM574.02814 345.21564Q574.02814 347.325 574.52814 348.02814Q575.02814 348.73126 575.7469 348.73126Q576.48126 348.73126 576.96564 348.02814Q577.46564 347.325 577.46564 345.21564Q577.46564 343.09064 576.96564 342.40314Q576.48126 341.7 575.73126 341.7Q575.0125 341.7 574.575 342.3094Q574.02814 343.09064 574.02814 345.21564ZM579.95 345.21564Q579.95 343.6844 580.2625 342.7625Q580.575 341.825 581.1844 341.325Q581.8094 340.825 582.7469 340.825Q583.4344 340.825 583.95 341.10626Q584.48126 341.3875 584.825 341.91876Q585.16876 342.4344 585.35626 343.1844Q585.54376 343.9344 585.54376 345.21564Q585.54376 346.73126 585.23126 347.65314Q584.9344 348.575 584.3094 349.09064Q583.7 349.59064 582.7469 349.59064Q581.5125 349.59064 580.79376 348.7Q579.95 347.6375 579.95 345.21564ZM581.02814 345.21564Q581.02814 347.325 581.52814 348.02814Q582.02814 348.73126 582.7469 348.73126Q583.48126 348.73126 583.96564 348.02814Q584.46564 347.325 584.46564 345.21564Q584.46564 343.09064 583.96564 342.40314Q583.48126 341.7 582.73126 341.7Q582.0125 341.7 581.575 342.3094Q581.02814 343.09064 581.02814 345.21564ZM587.15314 342.91876Q587.15314 341.9969 587.60626 341.35626Q588.075 340.71564 588.95 340.71564Q589.7625 340.71564 590.29376 341.29376Q590.825 341.8719 590.825 342.98126Q590.825 344.075 590.27814 344.66876Q589.7469 345.2469 588.96564 345.2469Q588.1844 345.2469 587.66876 344.66876Q587.15314 344.09064 587.15314 342.91876ZM588.98126 341.4344Q588.59064 341.4344 588.325 341.77814Q588.075 342.1219 588.075 343.02814Q588.075 343.85626 588.325 344.2Q588.59064 344.52814 588.98126 344.52814Q589.3875 344.52814 589.6375 344.1844Q589.90314 343.84064 589.90314 342.95Q589.90314 342.10626 589.6375 341.77814Q589.3719 341.4344 588.98126 341.4344ZM588.98126 349.7625L593.6844 340.71564L594.54376 340.71564L589.85626 349.7625L588.98126 349.7625ZM592.7 347.4344Q592.7 346.5125 593.15314 345.8719Q593.6219 345.23126 594.5125 345.23126Q595.325 345.23126 595.85626 345.8094Q596.3875 346.3719 596.3875 347.4969Q596.3875 348.59064 595.84064 349.1844Q595.3094 349.7625 594.5125 349.7625Q593.7469 349.7625 593.21564 349.1844Q592.7 348.60626 592.7 347.4344ZM594.54376 345.95Q594.1375 345.95 593.8719 346.29376Q593.6219 346.6375 593.6219 347.54376Q593.6219 348.35626 593.8875 348.7Q594.15314 349.04376 594.54376 349.04376Q594.9344 349.04376 595.2 348.7Q595.46564 348.35626 595.46564 347.45Q595.46564 346.6219 595.2 346.29376Q594.9344 345.95 594.54376 345.95Z" fill-rule="nonzero"/><path fill="#4285f4" d="M140.0 56.916668C140.0 56.364384 140.44771 55.916668 141.0 55.916668L151.0 55.916668C151.55229 55.916668 152.0 56.364384 152.0 56.916668L152.0 66.916664C152.0 67.46895 151.55229 67.916664 151.0 67.916664L141.0 67.916664C140.44771 67.916664 140.0 67.46895 140.0 66.916664Z" fill-rule="nonzero"/><path fill="#1a1a1a" d="M162.42188 65.916664L160.14062 57.322914L161.3125 57.322914L162.625 62.96354Q162.82812 63.83854 162.98438 64.71354Q163.3125 63.33854 163.375 63.11979L165.0 57.322914L166.375 57.322914L167.60938 61.666664Q168.0625 63.291664 168.28125 64.71354Q168.4375 63.90104 168.70312 62.83854L170.04688 57.322914L171.1875 57.322914L168.84375 65.916664L167.73438 65.916664L165.9375 59.36979Q165.70312 58.55729 165.65625 58.36979Q165.53125 58.947914 165.40625 59.36979L163.59375 65.916664L162.42188 65.916664ZM171.79688 65.916664L171.79688 57.322914L172.84375 57.322914L172.84375 60.40104Q173.57812 59.55729 174.70312 59.55729Q175.40625 59.55729 175.90625 59.83854Q176.42188 60.104164 176.64062 60.58854Q176.85938 61.05729 176.85938 61.979164L176.85938 65.916664L175.8125 65.916664L175.8125 61.979164Q175.8125 61.18229 175.46875 60.822914Q175.125 60.46354 174.5 60.46354Q174.03125 60.46354 173.60938 60.71354Q173.20312 60.947914 173.01562 61.36979Q172.84375 61.77604 172.84375 62.510414L172.84375 65.916664L171.79688 65.916664ZM178.79688 58.541664L178.79688 57.322914L179.85938 57.322914L179.85938 58.541664L178.79688 58.541664ZM178.79688 65.916664L178.79688 59.697914L179.85938 59.697914L179.85938 65.916664L178.79688 65.916664ZM184.09375 64.979164L184.25 65.90104Q183.79688 65.99479 183.45312 65.99479Q182.875 65.99479 182.5625 65.822914Q182.25 65.635414 182.10938 65.33854Q181.98438 65.041664 181.98438 64.08854L181.98438 60.510414L181.21875 60.510414L181.21875 59.697914L181.98438 59.697914L181.98438 58.15104L183.03125 57.52604L183.03125 59.697914L184.09375 59.697914L184.09375 60.510414L183.03125 60.510414L183.03125 64.15104Q183.03125 64.604164 183.07812 64.729164Q183.14062 64.854164 183.26562 64.93229Q183.39062 65.010414 183.625 65.010414Q183.8125 65.010414 184.09375 64.979164ZM189.04688 63.916664L190.14062 64.041664Q189.89062 64.99479 189.1875 65.52604Q188.48438 66.05729 187.40625 66.05729Q186.04688 66.05729 185.23438 65.21354Q184.4375 64.36979 184.4375 62.854164Q184.4375 61.291664 185.25 60.43229Q186.0625 59.55729 187.34375 59.55729Q188.59375 59.55729 189.375 60.40104Q190.17188 61.24479 190.17188 62.791664Q190.17188 62.885414 190.17188 63.072914L185.53125 63.072914Q185.59375 64.104164 186.10938 64.65104Q186.625 65.18229 187.40625 65.18229Q187.98438 65.18229 188.39062 64.885414Q188.8125 64.572914 189.04688 63.916664ZM185.59375 62.21354L189.0625 62.21354Q189.0 61.416664 188.67188 61.02604Q188.15625 60.416664 187.35938 60.416664Q186.625 60.416664 186.125 60.90104Q185.64062 61.385414 185.59375 62.21354Z" fill-rule="nonzero"/><path fill="#ea4335" d="M207.0 56.916668C207.0 56.364384 207.44771 55.916668 208.0 55.916668L218.0 55.916668C218.55229 55.916668 219.0 56.364384 219.0 56.916668L219.0 66.916664C219.0 67.46895 218.55229 67.916664 218.0 67.916664L208.0 67.916664C207.44771 67.916664 207.0 67.46895 207.0 66.916664Z" fill-rule="nonzero"/><path fill="#1a1a1a" d="M226.98438 65.916664L230.28125 57.322914L231.5 57.322914L235.01562 65.916664L233.73438 65.916664L232.71875 63.30729L229.14062 63.30729L228.1875 65.916664L226.98438 65.916664ZM229.46875 62.385414L232.375 62.385414L231.48438 60.010414Q231.0625 58.93229 230.875 58.229164Q230.70312 59.05729 230.40625 59.86979L229.46875 62.385414ZM234.375 64.05729L235.40625 63.90104Q235.5 64.52604 235.89062 64.854164Q236.29688 65.18229 237.03125 65.18229Q237.75 65.18229 238.09375 64.90104Q238.45312 64.604164 238.45312 64.197914Q238.45312 63.83854 238.14062 63.635414Q237.92188 63.49479 237.0625 63.27604Q235.90625 62.979164 235.45312 62.77604Q235.01562 62.55729 234.78125 62.18229Q234.54688 61.80729 234.54688 61.33854Q234.54688 60.93229 234.73438 60.572914Q234.92188 60.21354 235.25 59.979164Q235.5 59.80729 235.92188 59.68229Q236.34375 59.55729 236.84375 59.55729Q237.5625 59.55729 238.10938 59.77604Q238.67188 59.979164 238.9375 60.33854Q239.20312 60.697914 239.29688 61.291664L238.26562 61.43229Q238.20312 60.96354 237.85938 60.697914Q237.53125 60.416664 236.90625 60.416664Q236.1875 60.416664 235.875 60.666664Q235.5625 60.90104 235.5625 61.229164Q235.5625 61.43229 235.6875 61.58854Q235.82812 61.760414 236.09375 61.86979Q236.25 61.93229 237.03125 62.135414Q238.15625 62.447914 238.59375 62.635414Q239.03125 62.822914 239.28125 63.18229Q239.53125 63.541664 239.53125 64.08854Q239.53125 64.61979 239.21875 65.08854Q238.92188 65.541664 238.34375 65.80729Q237.76562 66.05729 237.03125 66.05729Q235.8125 66.05729 235.17188 65.55729Q234.54688 65.041664 234.375 64.05729ZM241.79688 58.541664L241.79688 57.322914L242.85938 57.322914L242.85938 58.541664L241.79688 58.541664ZM241.79688 65.916664L241.79688 59.697914L242.85938 59.697914L242.85938 65.916664L241.79688 65.916664ZM248.85938 65.15104Q248.26562 65.65104 247.71875 65.854164Q247.1875 66.05729 246.5625 66.05729Q245.53125 66.05729 244.98438 65.55729Q244.4375 65.05729 244.4375 64.27604Q244.4375 63.822914 244.64062 63.447914Q244.84375 63.05729 245.1875 62.83854Q245.53125 62.604164 245.95312 62.49479Q246.25 62.40104 246.89062 62.322914Q248.15625 62.18229 248.76562 61.96354Q248.76562 61.74479 248.76562 61.697914Q248.76562 61.041664 248.46875 60.77604Q248.0625 60.43229 247.26562 60.43229Q246.53125 60.43229 246.17188 60.697914Q245.8125 60.947914 245.64062 61.604164L244.60938 61.46354Q244.75 60.80729 245.07812 60.40104Q245.40625 59.99479 246.01562 59.77604Q246.625 59.55729 247.42188 59.55729Q248.21875 59.55729 248.71875 59.74479Q249.21875 59.93229 249.45312 60.21354Q249.6875 60.49479 249.78125 60.93229Q249.82812 61.197914 249.82812 61.90104L249.82812 63.30729Q249.82812 64.77604 249.89062 65.166664Q249.96875 65.55729 250.17188 65.916664L249.0625 65.916664Q248.90625 65.58854 248.85938 65.15104ZM248.76562 62.791664Q248.1875 63.02604 247.04688 63.197914Q246.39062 63.291664 246.125 63.416664Q245.85938 63.52604 245.70312 63.74479Q245.5625 63.96354 245.5625 64.24479Q245.5625 64.666664 245.875 64.947914Q246.20312 65.229164 246.8125 65.229164Q247.42188 65.229164 247.89062 64.96354Q248.375 64.697914 248.59375 64.229164Q248.76562 63.86979 248.76562 63.18229L248.76562 62.791664ZM251.79688 65.916664L251.79688 59.697914L252.73438 59.697914L252.73438 60.572914Q253.42188 59.55729 254.71875 59.55729Q255.28125 59.55729 255.75 59.760414Q256.23438 59.96354 256.46875 60.291664Q256.70312 60.61979 256.79688 61.05729Q256.84375 61.354164 256.84375 62.08854L256.84375 65.916664L255.79688 65.916664L255.79688 62.135414Q255.79688 61.479164 255.67188 61.166664Q255.54688 60.854164 255.23438 60.666664Q254.92188 60.46354 254.5 60.46354Q253.82812 60.46354 253.32812 60.90104Q252.84375 61.322914 252.84375 62.510414L252.84375 65.916664L251.79688 65.916664Z" fill-rule="nonzero"/><path fill="#fbbc04" d="M274.0 56.916668C274.0 56.364384 274.44772 55.916668 275.0 55.916668L285.0 55.916668C285.55228 55.916668 286.0 56.364384 286.0 56.916668L286.0 66.916664C286.0 67.46895 285.55228 67.916664 285.0 67.916664L275.0 67.916664C274.44772 67.916664 274.0 67.46895 274.0 66.916664Z" fill-rule="nonzero"/><path fill="#1a1a1a" d="M294.875 65.916664L294.875 57.322914L296.01562 57.322914L296.01562 64.90104L300.25 64.90104L300.25 65.916664L294.875 65.916664ZM305.85938 65.15104Q305.26562 65.65104 304.71875 65.854164Q304.1875 66.05729 303.5625 66.05729Q302.53125 66.05729 301.98438 65.55729Q301.4375 65.05729 301.4375 64.27604Q301.4375 63.822914 301.64062 63.447914Q301.84375 63.05729 302.1875 62.83854Q302.53125 62.604164 302.95312 62.49479Q303.25 62.40104 303.89062 62.322914Q305.15625 62.18229 305.76562 61.96354Q305.76562 61.74479 305.76562 61.697914Q305.76562 61.041664 305.46875 60.77604Q305.0625 60.43229 304.26562 60.43229Q303.53125 60.43229 303.17188 60.697914Q302.8125 60.947914 302.64062 61.604164L301.60938 61.46354Q301.75 60.80729 302.07812 60.40104Q302.40625 59.99479 303.01562 59.77604Q303.625 59.55729 304.42188 59.55729Q305.21875 59.55729 305.71875 59.74479Q306.21875 59.93229 306.45312 60.21354Q306.6875 60.49479 306.78125 60.93229Q306.82812 61.197914 306.82812 61.90104L306.82812 63.30729Q306.82812 64.77604 306.89062 65.166664Q306.96875 65.55729 307.17188 65.916664L306.0625 65.916664Q305.90625 65.58854 305.85938 65.15104ZM305.76562 62.791664Q305.1875 63.02604 304.04688 63.197914Q303.39062 63.291664 303.125 63.416664Q302.85938 63.52604 302.70312 63.74479Q302.5625 63.96354 302.5625 64.24479Q302.5625 64.666664 302.875 64.947914Q303.20312 65.229164 303.8125 65.229164Q304.42188 65.229164 304.89062 64.96354Q305.375 64.697914 305.59375 64.229164Q305.76562 63.86979 305.76562 63.18229L305.76562 62.791664ZM311.09375 64.979164L311.25 65.90104Q310.79688 65.99479 310.45312 65.99479Q309.875 65.99479 309.5625 65.822914Q309.25 65.635414 309.10938 65.33854Q308.98438 65.041664 308.98438 64.08854L308.98438 60.510414L308.21875 60.510414L308.21875 59.697914L308.98438 59.697914L308.98438 58.15104L310.03125 57.52604L310.03125 59.697914L311.09375 59.697914L311.09375 60.510414L310.03125 60.510414L310.03125 64.15104Q310.03125 64.604164 310.07812 64.729164Q310.14062 64.854164 310.26562 64.93229Q310.39062 65.010414 310.625 65.010414Q310.8125 65.010414 311.09375 64.979164ZM311.79688 58.541664L311.79688 57.322914L312.85938 57.322914L312.85938 58.541664L311.79688 58.541664ZM311.79688 65.916664L311.79688 59.697914L312.85938 59.697914L312.85938 65.916664L311.79688 65.916664ZM314.79688 65.916664L314.79688 59.697914L315.73438 59.697914L315.73438 60.572914Q316.42188 59.55729 317.71875 59.55729Q318.28125 59.55729 318.75 59.760414Q319.23438 59.96354 319.46875 60.291664Q319.70312 60.61979 319.79688 61.05729Q319.84375 61.354164 319.84375 62.08854L319.84375 65.916664L318.79688 65.916664L318.79688 62.135414Q318.79688 61.479164 318.67188 61.166664Q318.54688 60.854164 318.23438 60.666664Q317.92188 60.46354 317.5 60.46354Q316.82812 60.46354 316.32812 60.90104Q315.84375 61.322914 315.84375 62.510414L315.84375 65.916664L314.79688 65.916664ZM325.85938 65.15104Q325.26562 65.65104 324.71875 65.854164Q324.1875 66.05729 323.5625 66.05729Q322.53125 66.05729 321.98438 65.55729Q321.4375 65.05729 321.4375 64.27604Q321.4375 63.822914 321.64062 63.447914Q321.84375 63.05729 322.1875 62.83854Q322.53125 62.604164 322.95312 62.49479Q323.25 62.40104 323.89062 62.322914Q325.15625 62.18229 325.76562 61.96354Q325.76562 61.74479 325.76562 61.697914Q325.76562 61.041664 325.46875 60.77604Q325.0625 60.43229 324.26562 60.43229Q323.53125 60.43229 323.17188 60.697914Q322.8125 60.947914 322.64062 61.604164L321.60938 61.46354Q321.75 60.80729 322.07812 60.40104Q322.40625 59.99479 323.01562 59.77604Q323.625 59.55729 324.42188 59.55729Q325.21875 59.55729 325.71875 59.74479Q326.21875 59.93229 326.45312 60.21354Q326.6875 60.49479 326.78125 60.93229Q326.82812 61.197914 326.82812 61.90104L326.82812 63.30729Q326.82812 64.77604 326.89062 65.166664Q326.96875 65.55729 327.17188 65.916664L326.0625 65.916664Q325.90625 65.58854 325.85938 65.15104ZM325.76562 62.791664Q325.1875 63.02604 324.04688 63.197914Q323.39062 63.291664 323.125 63.416664Q322.85938 63.52604 322.70312 63.74479Q322.5625 63.96354 322.5625 64.24479Q322.5625 64.666664 322.875 64.947914Q323.20312 65.229164 323.8125 65.229164Q324.42188 65.229164 324.89062 64.96354Q325.375 64.697914 325.59375 64.229164Q325.76562 63.86979 325.76562 63.18229L325.76562 62.791664Z" fill-rule="nonzero"/><path fill="#34a853" d="M344.0 56.916668C344.0 56.364384 344.44772 55.916668 345.0 55.916668L355.0 55.916668C355.55228 55.916668 356.0 56.364384 356.0 56.916668L356.0 66.916664C356.0 67.46895 355.55228 67.916664 355.0 67.916664L345.0 67.916664C344.44772 67.916664 344.0 67.46895 344.0 66.916664Z" fill-rule="nonzero"/><path fill="#1a1a1a" d="M364.875 65.916664L364.875 57.322914L368.10938 57.322914Q369.09375 57.322914 369.6875 57.58854Q370.28125 57.854164 370.60938 58.40104Q370.95312 58.93229 370.95312 59.52604Q370.95312 60.072914 370.65625 60.55729Q370.35938 61.041664 369.75 61.33854Q370.53125 61.572914 370.9375 62.135414Q371.35938 62.68229 371.35938 63.43229Q371.35938 64.02604 371.10938 64.55729Q370.85938 65.072914 370.48438 65.354164Q370.10938 65.635414 369.53125 65.77604Q368.96875 65.916664 368.15625 65.916664L364.875 65.916664ZM366.01562 60.93229L367.875 60.93229Q368.625 60.93229 368.95312 60.83854Q369.39062 60.71354 369.60938 60.416664Q369.82812 60.104164 369.82812 59.65104Q369.82812 59.229164 369.625 58.90104Q369.42188 58.572914 369.03125 58.46354Q368.65625 58.33854 367.73438 58.33854L366.01562 58.33854L366.01562 60.93229ZM366.01562 64.90104L368.15625 64.90104Q368.70312 64.90104 368.92188 64.854164Q369.32812 64.791664 369.57812 64.635414Q369.84375 64.46354 370.01562 64.15104Q370.1875 63.83854 370.1875 63.43229Q370.1875 62.947914 369.9375 62.58854Q369.70312 62.229164 369.26562 62.08854Q368.82812 61.947914 368.0 61.947914L366.01562 61.947914L366.01562 64.90104ZM372.76562 65.916664L372.76562 57.322914L373.82812 57.322914L373.82812 65.916664L372.76562 65.916664ZM379.85938 65.15104Q379.26562 65.65104 378.71875 65.854164Q378.1875 66.05729 377.5625 66.05729Q376.53125 66.05729 375.98438 65.55729Q375.4375 65.05729 375.4375 64.27604Q375.4375 63.822914 375.64062 63.447914Q375.84375 63.05729 376.1875 62.83854Q376.53125 62.604164 376.95312 62.49479Q377.25 62.40104 377.89062 62.322914Q379.15625 62.18229 379.76562 61.96354Q379.76562 61.74479 379.76562 61.697914Q379.76562 61.041664 379.46875 60.77604Q379.0625 60.43229 378.26562 60.43229Q377.53125 60.43229 377.17188 60.697914Q376.8125 60.947914 376.64062 61.604164L375.60938 61.46354Q375.75 60.80729 376.07812 60.40104Q376.40625 59.99479 377.01562 59.77604Q377.625 59.55729 378.42188 59.55729Q379.21875 59.55729 379.71875 59.74479Q380.21875 59.93229 380.45312 60.21354Q380.6875 60.49479 380.78125 60.93229Q380.82812 61.197914 380.82812 61.90104L380.82812 63.30729Q380.82812 64.77604 380.89062 65.166664Q380.96875 65.55729 381.17188 65.916664L380.0625 65.916664Q379.90625 65.58854 379.85938 65.15104ZM379.76562 62.791664Q379.1875 63.02604 378.04688 63.197914Q377.39062 63.291664 377.125 63.416664Q376.85938 63.52604 376.70312 63.74479Q376.5625 63.96354 376.5625 64.24479Q376.5625 64.666664 376.875 64.947914Q377.20312 65.229164 377.8125 65.229164Q378.42188 65.229164 378.89062 64.96354Q379.375 64.697914 379.59375 64.229164Q379.76562 63.86979 379.76562 63.18229L379.76562 62.791664ZM386.85938 63.635414L387.89062 63.77604Q387.71875 64.83854 387.01562 65.447914Q386.3125 66.05729 385.29688 66.05729Q384.01562 66.05729 383.23438 65.229164Q382.46875 64.385414 382.46875 62.822914Q382.46875 61.822914 382.79688 61.072914Q383.14062 60.30729 383.8125 59.93229Q384.5 59.55729 385.3125 59.55729Q386.3125 59.55729 386.95312 60.072914Q387.60938 60.572914 387.79688 61.52604L386.76562 61.68229Q386.625 61.05729 386.25 60.74479Q385.875 60.416664 385.34375 60.416664Q384.54688 60.416664 384.04688 60.99479Q383.54688 61.55729 383.54688 62.791664Q383.54688 64.05729 384.03125 64.61979Q384.51562 65.18229 385.28125 65.18229Q385.90625 65.18229 386.3125 64.80729Q386.73438 64.43229 386.85938 63.635414ZM388.79688 65.916664L388.79688 57.322914L389.85938 57.322914L389.85938 62.229164L392.34375 59.697914L393.71875 59.697914L391.32812 61.99479L393.95312 65.916664L392.65625 65.916664L390.59375 62.729164L389.85938 63.447914L389.85938 65.916664L388.79688 65.916664Z" fill-rule="nonzero"/><path fill="#ff6d01" d="M410.0 56.916668C410.0 56.364384 410.44772 55.916668 411.0 55.916668L421.0 55.916668C421.55228 55.916668 422.0 56.364384 422.0 56.916668L422.0 66.916664C422.0 67.46895 421.55228 67.916664 421.0 67.916664L411.0 67.916664C410.44772 67.916664 410.0 67.46895 410.0 66.916664Z" fill-rule="nonzero"/><path fill="#1a1a1a" d="M430.57812 61.729164Q430.57812 59.58854 431.71875 58.385414Q432.875 57.166664 434.6875 57.166664Q435.89062 57.166664 436.84375 57.74479Q437.79688 58.30729 438.29688 59.322914Q438.79688 60.33854 438.79688 61.635414Q438.79688 62.93229 438.26562 63.96354Q437.73438 64.99479 436.76562 65.52604Q435.8125 66.05729 434.6875 66.05729Q433.46875 66.05729 432.51562 65.479164Q431.5625 64.885414 431.0625 63.885414Q430.57812 62.86979 430.57812 61.729164ZM431.75 61.74479Q431.75 63.30729 432.57812 64.197914Q433.42188 65.08854 434.6875 65.08854Q435.96875 65.08854 436.79688 64.197914Q437.625 63.291664 437.625 61.61979Q437.625 60.572914 437.26562 59.791664Q436.92188 59.010414 436.23438 58.58854Q435.54688 58.15104 434.70312 58.15104Q433.5 58.15104 432.625 58.979164Q431.75 59.80729 431.75 61.74479ZM442.09375 64.979164L442.25 65.90104Q441.79688 65.99479 441.45312 65.99479Q440.875 65.99479 440.5625 65.822914Q440.25 65.635414 440.10938 65.33854Q439.98438 65.041664 439.98438 64.08854L439.98438 60.510414L439.21875 60.510414L439.21875 59.697914L439.98438 59.697914L439.98438 58.15104L441.03125 57.52604L441.03125 59.697914L442.09375 59.697914L442.09375 60.510414L441.03125 60.510414L441.03125 64.15104Q441.03125 64.604164 441.07812 64.729164Q441.14062 64.854164 441.26562 64.93229Q441.39062 65.010414 441.625 65.010414Q441.8125 65.010414 442.09375 64.979164ZM442.79688 65.916664L442.79688 57.322914L443.84375 57.322914L443.84375 60.40104Q444.57812 59.55729 445.70312 59.55729Q446.40625 59.55729 446.90625 59.83854Q447.42188 60.104164 447.64062 60.58854Q447.85938 61.05729 447.85938 61.979164L447.85938 65.916664L446.8125 65.916664L446.8125 61.979164Q446.8125 61.18229 446.46875 60.822914Q446.125 60.46354 445.5 60.46354Q445.03125 60.46354 444.60938 60.71354Q444.20312 60.947914 444.01562 61.36979Q443.84375 61.77604 443.84375 62.510414L443.84375 65.916664L442.79688 65.916664ZM454.04688 63.916664L455.14062 64.041664Q454.89062 64.99479 454.1875 65.52604Q453.48438 66.05729 452.40625 66.05729Q451.04688 66.05729 450.23438 65.21354Q449.4375 64.36979 449.4375 62.854164Q449.4375 61.291664 450.25 60.43229Q451.0625 59.55729 452.34375 59.55729Q453.59375 59.55729 454.375 60.40104Q455.17188 61.24479 455.17188 62.791664Q455.17188 62.885414 455.17188 63.072914L450.53125 63.072914Q450.59375 64.104164 451.10938 64.65104Q451.625 65.18229 452.40625 65.18229Q452.98438 65.18229 453.39062 64.885414Q453.8125 64.572914 454.04688 63.916664ZM450.59375 62.21354L454.0625 62.21354Q454.0 61.416664 453.67188 61.02604Q453.15625 60.416664 452.35938 60.416664Q451.625 60.416664 451.125 60.90104Q450.64062 61.385414 450.59375 62.21354ZM456.78125 65.916664L456.78125 59.697914L457.73438 59.697914L457.73438 60.635414Q458.09375 59.979164 458.39062 59.77604Q458.70312 59.55729 459.07812 59.55729Q459.60938 59.55729 460.15625 59.885414L459.79688 60.86979Q459.40625 60.635414 459.03125 60.635414Q458.67188 60.635414 458.39062 60.854164Q458.125 61.05729 458.01562 61.43229Q457.82812 61.99479 457.82812 62.65104L457.82812 65.916664L456.78125 65.916664Z" fill-rule="nonzero"/><path fill="#757575" d="M22.596874 37.55L18.8 23.2375L20.7375 23.2375L22.909374 32.6125Q23.26875 34.096874 23.51875 35.55Q24.065624 33.253124 24.159374 32.89375L26.89375 23.2375L29.175 23.2375L31.221874 30.471874Q32.003124 33.175 32.346874 35.55Q32.6125 34.190624 33.05 32.425L35.3 23.2375L37.20625 23.2375L33.284374 37.55L31.45625 37.55L28.440624 26.64375Q28.05 25.26875 27.9875 24.95625Q27.753124 25.940624 27.565624 26.64375L24.534374 37.55L22.596874 37.55ZM38.8625 37.55L38.8625 23.2375L40.628124 23.2375L40.628124 28.3625Q41.8625 26.940624 43.7375 26.940624Q44.878124 26.940624 45.721874 27.39375Q46.58125 27.846874 46.940624 28.659374Q47.315624 29.45625 47.315624 30.971874L47.315624 37.55L45.565624 37.55L45.565624 30.971874Q45.565624 29.659374 44.9875 29.065624Q44.409374 28.45625 43.378124 28.45625Q42.596874 28.45625 41.89375 28.8625Q41.20625 29.26875 40.909374 29.971874Q40.628124 30.659374 40.628124 31.878124L40.628124 37.55L38.8625 37.55ZM48.878124 25.253124L48.878124 23.2375L50.64375 23.2375L50.64375 25.253124L48.878124 25.253124ZM48.878124 37.55L48.878124 27.175L50.64375 27.175L50.64375 37.55L48.878124 37.55ZM56.70625 35.971874L56.95625 37.534374Q56.221874 37.690624 55.628124 37.690624Q54.675 37.690624 54.14375 37.39375Q53.628124 37.08125 53.409374 36.596874Q53.190624 36.096874 53.190624 34.51875L53.190624 28.55L51.909374 28.55L51.909374 27.175L53.190624 27.175L53.190624 24.6125L54.940624 23.55L54.940624 27.175L56.70625 27.175L56.70625 28.55L54.940624 28.55L54.940624 34.6125Q54.940624 35.3625 55.034374 35.58125Q55.128124 35.784374 55.33125 35.925Q55.55 36.05 55.940624 36.05Q56.221874 36.05 56.70625 35.971874ZM65.97188 34.20625L67.78438 34.440624Q67.3625 36.01875 66.19063 36.909374Q65.03438 37.784374 63.221874 37.784374Q60.95625 37.784374 59.6125 36.39375Q58.284374 34.9875 58.284374 32.45625Q58.284374 29.83125 59.628124 28.39375Q60.971874 26.940624 63.128124 26.940624Q65.20625 26.940624 66.51875 28.3625Q67.84688 29.76875 67.84688 32.346874Q67.84688 32.503124 67.83125 32.815624L60.096874 32.815624Q60.190624 34.51875 61.065624 35.425Q61.940624 36.33125 63.2375 36.33125Q64.20625 36.33125 64.87813 35.83125Q65.56563 35.315624 65.97188 34.20625ZM60.190624 31.3625L65.9875 31.3625Q65.87813 30.065624 65.33125 29.409374Q64.4875 28.39375 63.14375 28.39375Q61.940624 28.39375 61.1125 29.20625Q60.284374 30.003124 60.190624 31.3625ZM70.33125 37.55L70.33125 35.55L72.33125 35.55L72.33125 37.55Q72.33125 38.659374 71.94063 39.33125Q71.55 40.01875 70.70625 40.378124L70.20625 39.628124Q70.76875 39.39375 71.03438 38.909374Q71.3 38.440624 71.33125 37.55L70.33125 37.55ZM80.51875 37.55L86.01875 23.2375L88.06563 23.2375L93.925 37.55L91.76875 37.55L90.09688 33.20625L84.1125 33.20625L82.53438 37.55L80.51875 37.55ZM84.65938 31.675L89.50313 31.675L88.01875 27.70625Q87.33125 25.89375 87.00313 24.7375Q86.72188 26.1125 86.22188 27.471874L84.65938 31.675ZM94.15938 34.45625L95.90938 34.175Q96.05 35.221874 96.72188 35.784374Q97.39375 36.33125 98.59688 36.33125Q99.8 36.33125 100.37813 35.846874Q100.97188 35.346874 100.97188 34.690624Q100.97188 34.096874 100.45625 33.753124Q100.09688 33.51875 98.65938 33.159374Q96.72188 32.659374 95.97188 32.315624Q95.2375 31.95625 94.84688 31.33125Q94.45625 30.690624 94.45625 29.925Q94.45625 29.2375 94.76875 28.64375Q95.09688 28.05 95.64375 27.659374Q96.05 27.3625 96.75313 27.159374Q97.47188 26.940624 98.28438 26.940624Q99.50313 26.940624 100.425 27.3Q101.34688 27.64375 101.78438 28.253124Q102.22188 28.846874 102.39375 29.846874L100.675 30.08125Q100.55 29.284374 99.9875 28.846874Q99.425 28.39375 98.40938 28.39375Q97.19063 28.39375 96.675 28.8Q96.15938 29.190624 96.15938 29.721874Q96.15938 30.065624 96.37813 30.346874Q96.58125 30.628124 97.05 30.815624Q97.31563 30.909374 98.59688 31.253124Q100.47188 31.753124 101.20625 32.08125Q101.94063 32.39375 102.3625 33.003124Q102.78438 33.596874 102.78438 34.503124Q102.78438 35.378124 102.26875 36.159374Q101.75313 36.940624 100.78438 37.3625Q99.81563 37.784374 98.59688 37.784374Q96.58125 37.784374 95.51875 36.940624Q94.45625 36.096874 94.15938 34.45625ZM104.87813 25.253124L104.87813 23.2375L106.64375 23.2375L106.64375 25.253124L104.87813 25.253124ZM104.87813 37.55L104.87813 27.175L106.64375 27.175L106.64375 37.55L104.87813 37.55ZM115.64375 36.26875Q114.65938 37.096874 113.75313 37.440624Q112.84688 37.784374 111.81563 37.784374Q110.1125 37.784374 109.19063 36.95625Q108.26875 36.1125 108.26875 34.815624Q108.26875 34.05 108.6125 33.425Q108.97188 32.8 109.53438 32.425Q110.09688 32.034374 110.8 31.83125Q111.31563 31.70625 112.3625 31.565624Q114.4875 31.315624 115.4875 30.971874Q115.50313 30.6125 115.50313 30.503124Q115.50313 29.440624 115.00313 28.9875Q114.33125 28.39375 113.00313 28.39375Q111.75313 28.39375 111.15938 28.83125Q110.58125 29.26875 110.3 30.378124L108.58125 30.14375Q108.81563 29.034374 109.34688 28.3625Q109.87813 27.675 110.89375 27.315624Q111.90938 26.940624 113.25313 26.940624Q114.58125 26.940624 115.40938 27.253124Q116.2375 27.565624 116.62813 28.05Q117.01875 28.51875 117.175 29.2375Q117.26875 29.690624 117.26875 30.8625L117.26875 33.20625Q117.26875 35.659374 117.37813 36.315624Q117.4875 36.95625 117.83125 37.55L115.9875 37.55Q115.72188 37.003124 115.64375 36.26875ZM115.4875 32.346874Q114.53438 32.7375 112.6125 33.003124Q111.53438 33.159374 111.08125 33.3625Q110.64375 33.55 110.39375 33.925Q110.14375 34.3 110.14375 34.76875Q110.14375 35.471874 110.675 35.940624Q111.20625 36.409374 112.2375 36.409374Q113.25313 36.409374 114.03438 35.971874Q114.83125 35.51875 115.20625 34.753124Q115.4875 34.14375 115.4875 32.9875L115.4875 32.346874ZM119.8625 37.55L119.8625 27.175L121.45625 27.175L121.45625 28.659374Q122.59688 26.940624 124.75313 26.940624Q125.69063 26.940624 126.47188 27.284374Q127.26875 27.6125 127.65938 28.159374Q128.05 28.70625 128.20625 29.45625Q128.3 29.95625 128.3 31.175L128.3 37.55L126.53438 37.55L126.53438 31.2375Q126.53438 30.159374 126.33125 29.628124Q126.12813 29.096874 125.59688 28.784374Q125.08125 28.471874 124.37813 28.471874Q123.25313 28.471874 122.44063 29.190624Q121.62813 29.89375 121.62813 31.878124L121.62813 37.55L119.8625 37.55ZM130.33125 37.55L130.33125 35.55L132.33125 35.55L132.33125 37.55Q132.33125 38.659374 131.94063 39.33125Q131.55 40.01875 130.70625 40.378124L130.20625 39.628124Q130.76875 39.39375 131.03438 38.909374Q131.3 38.440624 131.33125 37.55L130.33125 37.55ZM142.01875 37.55L142.01875 23.2375L143.90938 23.2375L143.90938 35.8625L150.95625 35.8625L150.95625 37.55L142.01875 37.55ZM159.64375 36.26875Q158.65938 37.096874 157.75313 37.440624Q156.84688 37.784374 155.81563 37.784374Q154.1125 37.784374 153.19063 36.95625Q152.26875 36.1125 152.26875 34.815624Q152.26875 34.05 152.6125 33.425Q152.97188 32.8 153.53438 32.425Q154.09688 32.034374 154.8 31.83125Q155.31563 31.70625 156.3625 31.565624Q158.4875 31.315624 159.4875 30.971874Q159.50313 30.6125 159.50313 30.503124Q159.50313 29.440624 159.00313 28.9875Q158.33125 28.39375 157.00313 28.39375Q155.75313 28.39375 155.15938 28.83125Q154.58125 29.26875 154.3 30.378124L152.58125 30.14375Q152.81563 29.034374 153.34688 28.3625Q153.87813 27.675 154.89375 27.315624Q155.90938 26.940624 157.25313 26.940624Q158.58125 26.940624 159.40938 27.253124Q160.2375 27.565624 160.62813 28.05Q161.01875 28.51875 161.175 29.2375Q161.26875 29.690624 161.26875 30.8625L161.26875 33.20625Q161.26875 35.659374 161.37813 36.315624Q161.4875 36.95625 161.83125 37.55L159.9875 37.55Q159.72188 37.003124 159.64375 36.26875ZM159.4875 32.346874Q158.53438 32.7375 156.6125 33.003124Q155.53438 33.159374 155.08125 33.3625Q154.64375 33.55 154.39375 33.925Q154.14375 34.3 154.14375 34.76875Q154.14375 35.471874 154.675 35.940624Q155.20625 36.409374 156.2375 36.409374Q157.25313 36.409374 158.03438 35.971874Q158.83125 35.51875 159.20625 34.753124Q159.4875 34.14375 159.4875 32.9875L159.4875 32.346874ZM167.70625 35.971874L167.95625 37.534374Q167.22188 37.690624 166.62813 37.690624Q165.675 37.690624 165.14375 37.39375Q164.62813 37.08125 164.40938 36.596874Q164.19063 36.096874 164.19063 34.51875L164.19063 28.55L162.90938 28.55L162.90938 27.175L164.19063 27.175L164.19063 24.6125L165.94063 23.55L165.94063 27.175L167.70625 27.175L167.70625 28.55L165.94063 28.55L165.94063 34.6125Q165.94063 35.3625 166.03438 35.58125Q166.12813 35.784374 166.33125 35.925Q166.55 36.05 166.94063 36.05Q167.22188 36.05 167.70625 35.971874ZM169.87813 25.253124L169.87813 23.2375L171.64375 23.2375L171.64375 25.253124L169.87813 25.253124ZM169.87813 37.55L169.87813 27.175L171.64375 27.175L171.64375 37.55L169.87813 37.55ZM173.8625 37.55L173.8625 27.175L175.45625 27.175L175.45625 28.659374Q176.59688 26.940624 178.75313 26.940624Q179.69063 26.940624 180.47188 27.284374Q181.26875 27.6125 181.65938 28.159374Q182.05 28.70625 182.20625 29.45625Q182.3 29.95625 182.3 31.175L182.3 37.55L180.53438 37.55L180.53438 31.2375Q180.53438 30.159374 180.33125 29.628124Q180.12813 29.096874 179.59688 28.784374Q179.08125 28.471874 178.37813 28.471874Q177.25313 28.471874 176.44063 29.190624Q175.62813 29.89375 175.62813 31.878124L175.62813 37.55L173.8625 37.55ZM190.64375 36.26875Q189.65938 37.096874 188.75313 37.440624Q187.84688 37.784374 186.81563 37.784374Q185.1125 37.784374 184.19063 36.95625Q183.26875 36.1125 183.26875 34.815624Q183.26875 34.05 183.6125 33.425Q183.97188 32.8 184.53438 32.425Q185.09688 32.034374 185.8 31.83125Q186.31563 31.70625 187.3625 31.565624Q189.4875 31.315624 190.4875 30.971874Q190.50313 30.6125 190.50313 30.503124Q190.50313 29.440624 190.00313 28.9875Q189.33125 28.39375 188.00313 28.39375Q186.75313 28.39375 186.15938 28.83125Q185.58125 29.26875 185.3 30.378124L183.58125 30.14375Q183.81563 29.034374 184.34688 28.3625Q184.87813 27.675 185.89375 27.315624Q186.90938 26.940624 188.25313 26.940624Q189.58125 26.940624 190.40938 27.253124Q191.2375 27.565624 191.62813 28.05Q192.01875 28.51875 192.175 29.2375Q192.26875 29.690624 192.26875 30.8625L192.26875 33.20625Q192.26875 35.659374 192.37813 36.315624Q192.4875 36.95625 192.83125 37.55L190.9875 37.55Q190.72188 37.003124 190.64375 36.26875ZM190.4875 32.346874Q189.53438 32.7375 187.6125 33.003124Q186.53438 33.159374 186.08125 33.3625Q185.64375 33.55 185.39375 33.925Q185.14375 34.3 185.14375 34.76875Q185.14375 35.471874 185.675 35.940624Q186.20625 36.409374 187.2375 36.409374Q188.25313 36.409374 189.03438 35.971874Q189.83125 35.51875 190.20625 34.753124Q190.4875 34.14375 190.4875 32.9875L190.4875 32.346874ZM195.33125 37.55L195.33125 35.55L197.33125 35.55L197.33125 37.55Q197.33125 38.659374 196.94063 39.33125Q196.55 40.01875 195.70625 40.378124L195.20625 39.628124Q195.76875 39.39375 196.03438 38.909374Q196.3 38.440624 196.33125 37.55L195.33125 37.55ZM207.01875 37.55L207.01875 23.2375L212.39375 23.2375Q214.03438 23.2375 215.01875 23.675Q216.00313 24.096874 216.56563 25.003124Q217.12813 25.909374 217.12813 26.89375Q217.12813 27.815624 216.62813 28.628124Q216.14375 29.440624 215.12813 29.925Q216.425 30.315624 217.12813 31.2375Q217.83125 32.14375 217.83125 33.39375Q217.83125 34.409374 217.39375 35.26875Q216.97188 36.128124 216.34688 36.596874Q215.72188 37.065624 214.78438 37.315624Q213.84688 37.55 212.47188 37.55L207.01875 37.55ZM208.90938 29.253124L212.00313 29.253124Q213.26875 29.253124 213.81563 29.08125Q214.53438 28.8625 214.89375 28.378124Q215.26875 27.878124 215.26875 27.1125Q215.26875 26.409374 214.925 25.8625Q214.58125 25.315624 213.94063 25.128124Q213.31563 24.925 211.76875 24.925L208.90938 24.925L208.90938 29.253124ZM208.90938 35.8625L212.47188 35.8625Q213.39375 35.8625 213.76875 35.784374Q214.425 35.675 214.8625 35.409374Q215.3 35.128124 215.58125 34.6125Q215.8625 34.08125 215.8625 33.39375Q215.8625 32.596874 215.45625 32.003124Q215.05 31.409374 214.31563 31.175Q213.58125 30.940624 212.22188 30.940624L208.90938 30.940624L208.90938 35.8625ZM219.83125 37.55L219.83125 23.2375L221.58125 23.2375L221.58125 37.55L219.83125 37.55ZM230.64375 36.26875Q229.65938 37.096874 228.75313 37.440624Q227.84688 37.784374 226.81563 37.784374Q225.1125 37.784374 224.19063 36.95625Q223.26875 36.1125 223.26875 34.815624Q223.26875 34.05 223.6125 33.425Q223.97188 32.8 224.53438 32.425Q225.09688 32.034374 225.8 31.83125Q226.31563 31.70625 227.3625 31.565624Q229.4875 31.315624 230.4875 30.971874Q230.50313 30.6125 230.50313 30.503124Q230.50313 29.440624 230.00313 28.9875Q229.33125 28.39375 228.00313 28.39375Q226.75313 28.39375 226.15938 28.83125Q225.58125 29.26875 225.3 30.378124L223.58125 30.14375Q223.81563 29.034374 224.34688 28.3625Q224.87813 27.675 225.89375 27.315624Q226.90938 26.940624 228.25313 26.940624Q229.58125 26.940624 230.40938 27.253124Q231.2375 27.565624 231.62813 28.05Q232.01875 28.51875 232.175 29.2375Q232.26875 29.690624 232.26875 30.8625L232.26875 33.20625Q232.26875 35.659374 232.37813 36.315624Q232.4875 36.95625 232.83125 37.55L230.9875 37.55Q230.72188 37.003124 230.64375 36.26875ZM230.4875 32.346874Q229.53438 32.7375 227.6125 33.003124Q226.53438 33.159374 226.08125 33.3625Q225.64375 33.55 225.39375 33.925Q225.14375 34.3 225.14375 34.76875Q225.14375 35.471874 225.675 35.940624Q226.20625 36.409374 227.2375 36.409374Q228.25313 36.409374 229.03438 35.971874Q229.83125 35.51875 230.20625 34.753124Q230.4875 34.14375 230.4875 32.9875L230.4875 32.346874ZM241.64375 33.753124L243.3625 33.971874Q243.08125 35.76875 241.90938 36.784374Q240.75313 37.784374 239.05 37.784374Q236.925 37.784374 235.62813 36.39375Q234.33125 35.003124 234.33125 32.409374Q234.33125 30.721874 234.87813 29.471874Q235.44063 28.20625 236.58125 27.58125Q237.72188 26.940624 239.06563 26.940624Q240.75313 26.940624 241.81563 27.8Q242.89375 28.659374 243.20625 30.221874L241.4875 30.4875Q241.25313 29.440624 240.62813 28.925Q240.00313 28.39375 239.12813 28.39375Q237.8 28.39375 236.97188 29.346874Q236.14375 30.3 236.14375 32.346874Q236.14375 34.440624 236.94063 35.39375Q237.7375 36.33125 239.03438 36.33125Q240.06563 36.33125 240.75313 35.70625Q241.45625 35.065624 241.64375 33.753124ZM244.87813 37.55L244.87813 23.2375L246.64375 23.2375L246.64375 31.39375L250.8 27.175L253.06563 27.175L249.1125 31.01875L253.47188 37.55L251.3 37.55L247.87813 32.253124L246.64375 33.440624L246.64375 37.55L244.87813 37.55ZM267.64374 36.26875Q266.65936 37.096874 265.7531 37.440624Q264.84686 37.784374 263.8156 37.784374Q262.1125 37.784374 261.1906 36.95625Q260.26874 36.1125 260.26874 34.815624Q260.26874 34.05 260.6125 33.425Q260.97186 32.8 261.53436 32.425Q262.09686 32.034374 262.8 31.83125Q263.3156 31.70625 264.3625 31.565624Q266.4875 31.315624 267.4875 30.971874Q267.5031 30.6125 267.5031 30.503124Q267.5031 29.440624 267.0031 28.9875Q266.33124 28.39375 265.0031 28.39375Q263.7531 28.39375 263.15936 28.83125Q262.58124 29.26875 262.3 30.378124L260.58124 30.14375Q260.8156 29.034374 261.34686 28.3625Q261.8781 27.675 262.89374 27.315624Q263.90936 26.940624 265.2531 26.940624Q266.58124 26.940624 267.40936 27.253124Q268.2375 27.565624 268.6281 28.05Q269.01874 28.51875 269.175 29.2375Q269.26874 29.690624 269.26874 30.8625L269.26874 33.20625Q269.26874 35.659374 269.3781 36.315624Q269.4875 36.95625 269.83124 37.55L267.9875 37.55Q267.72186 37.003124 267.64374 36.26875ZM267.4875 32.346874Q266.53436 32.7375 264.6125 33.003124Q263.53436 33.159374 263.08124 33.3625Q262.64374 33.55 262.39374 33.925Q262.14374 34.3 262.14374 34.76875Q262.14374 35.471874 262.675 35.940624Q263.20624 36.409374 264.2375 36.409374Q265.2531 36.409374 266.03436 35.971874Q266.83124 35.51875 267.20624 34.753124Q267.4875 34.14375 267.4875 32.9875L267.4875 32.346874ZM271.8625 37.55L271.8625 27.175L273.45624 27.175L273.45624 28.659374Q274.59686 26.940624 276.7531 26.940624Q277.6906 26.940624 278.47186 27.284374Q279.26874 27.6125 279.65936 28.159374Q280.05 28.70625 280.20624 29.45625Q280.3 29.95625 280.3 31.175L280.3 37.55L278.53436 37.55L278.53436 31.2375Q278.53436 30.159374 278.33124 29.628124Q278.1281 29.096874 277.59686 28.784374Q277.08124 28.471874 276.3781 28.471874Q275.2531 28.471874 274.4406 29.190624Q273.6281 29.89375 273.6281 31.878124L273.6281 37.55L271.8625 37.55ZM288.59686 37.55L288.59686 36.2375Q287.6125 37.784374 285.6906 37.784374Q284.45624 37.784374 283.40936 37.096874Q282.3781 36.409374 281.8 35.190624Q281.2375 33.971874 281.2375 32.378124Q281.2375 30.815624 281.7531 29.55Q282.26874 28.284374 283.3 27.6125Q284.34686 26.940624 285.6125 26.940624Q286.55 26.940624 287.28436 27.346874Q288.01874 27.7375 288.4875 28.3625L288.4875 23.2375L290.22186 23.2375L290.22186 37.55L288.59686 37.55ZM283.03436 32.378124Q283.03436 34.3625 283.8781 35.346874Q284.72186 36.33125 285.8625 36.33125Q287.01874 36.33125 287.8156 35.39375Q288.6281 34.45625 288.6281 32.51875Q288.6281 30.39375 287.8 29.39375Q286.9875 28.39375 285.78436 28.39375Q284.6125 28.39375 283.8156 29.3625Q283.03436 30.315624 283.03436 32.378124ZM298.51874 30.58125Q298.51874 27.01875 300.425 25.003124Q302.34686 22.971874 305.3781 22.971874Q307.3625 22.971874 308.9406 23.925Q310.53436 24.878124 311.3625 26.58125Q312.20624 28.26875 312.20624 30.409374Q312.20624 32.58125 311.33124 34.3Q310.45624 36.01875 308.83124 36.909374Q307.22186 37.8 305.3625 37.8Q303.34686 37.8 301.7531 36.83125Q300.15936 35.846874 299.33124 34.159374Q298.51874 32.45625 298.51874 30.58125ZM300.47186 30.6125Q300.47186 33.190624 301.8625 34.690624Q303.2531 36.175 305.34686 36.175Q307.4875 36.175 308.8625 34.675Q310.2531 33.159374 310.2531 30.39375Q310.2531 28.659374 309.65936 27.3625Q309.08124 26.05 307.9406 25.33125Q306.8 24.6125 305.3781 24.6125Q303.3781 24.6125 301.925 26.003124Q300.47186 27.378124 300.47186 30.6125ZM318.70624 35.971874L318.95624 37.534374Q318.22186 37.690624 317.6281 37.690624Q316.675 37.690624 316.14374 37.39375Q315.6281 37.08125 315.40936 36.596874Q315.1906 36.096874 315.1906 34.51875L315.1906 28.55L313.90936 28.55L313.90936 27.175L315.1906 27.175L315.1906 24.6125L316.9406 23.55L316.9406 27.175L318.70624 27.175L318.70624 28.55L316.9406 28.55L316.9406 34.6125Q316.9406 35.3625 317.03436 35.58125Q317.1281 35.784374 317.33124 35.925Q317.55 36.05 317.9406 36.05Q318.22186 36.05 318.70624 35.971874ZM320.8625 37.55L320.8625 23.2375L322.6281 23.2375L322.6281 28.3625Q323.8625 26.940624 325.7375 26.940624Q326.8781 26.940624 327.72186 27.39375Q328.58124 27.846874 328.9406 28.659374Q329.3156 29.45625 329.3156 30.971874L329.3156 37.55L327.5656 37.55L327.5656 30.971874Q327.5656 29.659374 326.9875 29.065624Q326.40936 28.45625 325.3781 28.45625Q324.59686 28.45625 323.89374 28.8625Q323.20624 29.26875 322.90936 29.971874Q322.6281 30.659374 322.6281 31.878124L322.6281 37.55L320.8625 37.55ZM337.97186 34.20625L339.78436 34.440624Q339.3625 36.01875 338.1906 36.909374Q337.03436 37.784374 335.22186 37.784374Q332.95624 37.784374 331.6125 36.39375Q330.28436 34.9875 330.28436 32.45625Q330.28436 29.83125 331.6281 28.39375Q332.97186 26.940624 335.1281 26.940624Q337.20624 26.940624 338.51874 28.3625Q339.84686 29.76875 339.84686 32.346874Q339.84686 32.503124 339.83124 32.815624L332.09686 32.815624Q332.1906 34.51875 333.0656 35.425Q333.9406 36.33125 335.2375 36.33125Q336.20624 36.33125 336.8781 35.83125Q337.5656 35.315624 337.97186 34.20625ZM332.1906 31.3625L337.9875 31.3625Q337.8781 30.065624 337.33124 29.409374Q336.4875 28.39375 335.14374 28.39375Q333.9406 28.39375 333.1125 29.20625Q332.28436 30.003124 332.1906 31.3625ZM341.84686 37.55L341.84686 27.175L343.425 27.175L343.425 28.753124Q344.03436 27.64375 344.55 27.3Q345.0656 26.940624 345.675 26.940624Q346.5656 26.940624 347.4875 27.503124L346.8781 29.14375Q346.2375 28.753124 345.59686 28.753124Q345.01874 28.753124 344.55 29.1125Q344.09686 29.45625 343.89374 30.065624Q343.6125 31.003124 343.6125 32.1125L343.6125 37.55L341.84686 37.55Z" fill-rule="nonzero"/></svg>